<svg width="100" height="100" viewBox="0 0 100 100" fill="none" xmlns="http://www.w3.org/2000/svg">
<g clip-path="url(#clip0)">
<path d="M73.2112 73.2163H62.4978V99.9999H73.2112V73.2163Z" fill="white"/>
<path d="M48.2139 44.6475H39.2859V55.3609H48.2139V44.6475Z" fill="white"/>
<path d="M35.7141 44.6475H28.5719V55.3609H35.7141V44.6475Z" fill="white"/>
<path d="M28.5719 37.505V41.0762H35.7141V30.3628H29.8217C28.9956 32.6534 28.5727 35.0698 28.5719 37.505Z" fill="white"/>
<path d="M31.4644 26.7917H35.7139V21.5779C34.0316 23.0811 32.5974 24.8407 31.4644 26.7917Z" fill="white"/>
<path d="M19.6448 100H23.216V73.2164C23.2218 71.2466 24.8171 69.6511 26.7872 69.6452H37.5006C39.4705 69.6509 41.066 71.2464 41.0718 73.2164V75.0019H58.9275V73.2164C58.9333 71.2466 60.5286 69.6511 62.4987 69.6452H73.2121C75.182 69.6509 76.7775 71.2464 76.7833 73.2164V100H80.3545V66.0742H19.6448V100Z" fill="white"/>
<path d="M16.0729 44.6475H8.93073V100H16.0729V44.6475Z" fill="white"/>
<path d="M58.9284 78.573H41.0728V99.9998H58.9284V78.573Z" fill="white"/>
<path d="M5.36025 53.5752H0.00354004V100H5.36025V53.5752Z" fill="white"/>
<path d="M17.859 37.5051H7.14555C6.15937 37.5051 5.36005 38.3044 5.36005 39.2906C5.36005 40.2768 6.15937 41.0761 7.14555 41.0761H17.859C18.8452 41.0761 19.6445 40.2766 19.6445 39.2906C19.6445 38.3047 18.8452 37.5051 17.859 37.5051Z" fill="white"/>
<path d="M37.5005 73.2163H26.7871V99.9999H37.5005V73.2163Z" fill="white"/>
<path d="M18.1087 23.2205H18.1265C18.7731 23.2282 19.3709 22.8777 19.6799 22.3098C28.0598 5.56508 48.4275 -1.21598 65.172 7.16393C71.7248 10.4432 77.0386 15.7573 80.3179 22.3098C80.8887 23.1744 82.0524 23.4126 82.917 22.8417C83.1164 22.7101 83.2886 22.5417 83.4248 22.3454C83.7479 21.8407 83.7818 21.2031 83.5142 20.667C74.2048 2.15728 51.6526 -5.3011 33.1427 4.00828C25.945 7.62825 20.1039 13.4694 16.4839 20.667C16.2161 21.2031 16.25 21.8407 16.5733 22.3454C16.8953 22.8873 17.4785 23.2196 18.1087 23.2205Z" fill="white"/>
<path d="M48.2139 30.3628H39.2859V41.0762H48.2139V30.3628Z" fill="white"/>
<path d="M64.2847 30.3628V41.0762H71.4269V37.505C71.4261 35.07 71.0032 32.6534 70.1771 30.3628H64.2847Z" fill="white"/>
<path d="M91.0681 44.6475H83.9259V100H91.0681V44.6475Z" fill="white"/>
<path d="M99.9967 53.5752H94.64V100H99.9967V53.5752Z" fill="white"/>
<path d="M71.4269 44.6475H64.2847V55.3609H71.4269V44.6475Z" fill="white"/>
<path d="M92.8542 37.5051H82.1407C81.1546 37.5051 80.3552 38.3044 80.3552 39.2906C80.3552 40.2768 81.1546 41.0761 82.1407 41.0761H92.8542C93.8403 41.0761 94.6397 40.2766 94.6397 39.2906C94.6397 38.3047 93.8403 37.5051 92.8542 37.5051Z" fill="white"/>
<path d="M77.0823 37.5262C77.6189 35.9953 78.8224 34.7917 80.3533 34.2552V26.5774C78.9578 26.1689 77.7902 25.2078 77.1213 23.9168C74.197 18.0654 69.6363 13.5729 64.2708 10.7165C62.9831 10.031 61.6489 9.43964 60.2801 8.94644C57.7704 8.04229 55.1435 7.4677 52.4706 7.24652C51.9845 7.20635 51.4969 7.17789 51.0083 7.16115C50.7639 7.15278 50.5193 7.14734 50.2745 7.14504C47.8263 7.12077 45.356 7.39383 42.9164 7.98203C42.6724 8.04082 42.4288 8.10276 42.1855 8.16784C40.2393 8.68886 38.3163 9.41285 36.4439 10.3486C32.7738 12.1829 29.5375 14.7304 26.91 17.817C25.3336 19.6689 23.9762 21.7149 22.8758 23.917C22.2068 25.2078 21.0392 26.1691 19.6437 26.5776V34.2554C22.4246 35.2299 23.8891 38.2742 22.9147 41.0551C22.3782 42.586 21.1746 43.7896 19.6437 44.3261V62.5031H80.3531V44.3261C77.5724 43.3514 76.1079 40.3071 77.0823 37.5262ZM74.9966 57.1462C74.9936 58.1311 74.196 58.929 73.2111 58.9317H26.7862C25.8012 58.9288 25.0034 58.1311 25.0007 57.1462V37.5048C24.9975 34.2138 25.647 30.9548 26.9113 27.9163C26.9291 27.8985 26.9291 27.8805 26.9471 27.8628C28.9506 23.116 32.367 19.101 36.7321 16.3636C36.7679 16.3458 36.7854 16.31 36.8212 16.31C44.8745 11.2389 55.123 11.2389 63.1762 16.31C63.212 16.31 63.2296 16.3458 63.2654 16.3636C67.6305 19.101 71.0468 23.1158 73.0504 27.8628C73.0682 27.8805 73.0682 27.8985 73.0862 27.9163C74.3506 30.9548 74.9999 34.2138 74.9968 37.5048V57.1462H74.9966Z" fill="white"/>
<path d="M39.2859 26.7918H48.2139V16.1675C45.0674 16.4318 42.0187 17.3891 39.2859 18.9708V26.7918Z" fill="white"/>
<path d="M60.7117 44.6475H51.7838V55.3609H60.7117V44.6475Z" fill="white"/>
<path d="M60.7117 30.3628H51.7838V41.0762H60.7117V30.3628Z" fill="white"/>
<path d="M64.2847 21.5776V26.7914H68.5343C67.4012 24.8406 65.967 23.0811 64.2847 21.5776Z" fill="white"/>
<path d="M51.7838 26.7916H60.7117V18.9708C57.9792 17.3891 54.9303 16.4318 51.7838 16.1675V26.7916Z" fill="white"/>
</g>
<defs>
<clipPath id="clip0">
<rect width="100" height="100" fill="white"/>
</clipPath>
</defs>
</svg>
