<svg width="100" height="100" viewBox="0 0 100 100" fill="none" xmlns="http://www.w3.org/2000/svg">
<g clip-path="url(#clip0)">
<path d="M98.5625 23.4208C97.175 21.7791 95.1417 20.8333 92.9917 20.8333H32.475C28.9042 20.8333 25.8792 23.3874 25.2834 26.9083L18.5834 66.4916C18.225 68.6124 18.8125 70.7707 20.2 72.4124C21.5875 74.0541 23.6167 74.9999 25.7709 74.9999H86.2875C89.8584 74.9999 92.8834 72.4458 93.4792 68.9249L100.179 29.3416C100.538 27.2208 99.95 25.0624 98.5625 23.4208ZM89.625 39.7916L63.1667 50.7499C62.0417 51.2499 60.7917 51.4583 59.5834 51.4583C58.1667 51.4583 56.75 51.1666 55.4584 50.4999L31.4167 38.6666L32.5 32.2499L58.2084 44.9166C59 45.2916 59.9584 45.3333 60.7917 44.9999L90.8334 32.5416L89.625 39.7916ZM98.8334 35.2083L99.1667 33.1249C99.3334 33.8749 99.2084 34.5833 98.8334 35.2083Z" fill="#294198"/>
<path d="M16.6667 33.3333H4.16667C1.8625 33.3333 0 31.4667 0 29.1667C0 26.8667 1.8625 25 4.16667 25H16.6667C18.9708 25 20.8333 26.8667 20.8333 29.1667C20.8333 31.4667 18.9708 33.3333 16.6667 33.3333Z" fill="#294198"/>
<path d="M12.5 50.0001H4.16667C1.8625 50.0001 0 48.1334 0 45.8334C0 43.5334 1.8625 41.6667 4.16667 41.6667H12.5C14.8042 41.6667 16.6667 43.5334 16.6667 45.8334C16.6667 48.1334 14.8042 50.0001 12.5 50.0001Z" fill="#294198"/>
<path d="M8.33333 66.6666H4.16667C1.8625 66.6666 0 64.7999 0 62.4999C0 60.1999 1.8625 58.3333 4.16667 58.3333H8.33333C10.6375 58.3333 12.5 60.1999 12.5 62.4999C12.5 64.7999 10.6375 66.6666 8.33333 66.6666Z" fill="#294198"/>
</g>
<defs>
<clipPath id="clip0">
<rect width="100" height="100" fill="white"/>
</clipPath>
</defs>
</svg>
