<svg width="100" height="100" viewBox="0 0 100 100" fill="none" xmlns="http://www.w3.org/2000/svg">
<g clip-path="url(#clip0)">
<path d="M87.6316 19.94C87.6316 18.1592 85.8231 17.6401 84.4146 17.3252V22.5038C85.9848 22.3974 87.6316 21.6613 87.6316 19.94Z" fill="white"/>
<path d="M82.8474 8.90405C81.0687 8.95512 79.9156 10.004 79.9156 11.1274C79.9156 12.4359 80.89 13.1933 82.8496 13.5848L82.8474 8.90405Z" fill="white"/>
<path d="M83.5797 31.6312C92.3029 31.6312 99.3964 24.5356 99.3964 15.8167C99.3964 7.09772 92.3008 0 83.5797 0C74.8543 0 67.7587 7.09559 67.7587 15.8167C67.7587 24.5356 74.8543 31.6312 83.5797 31.6312ZM76.6245 11.7274C76.6245 8.17429 79.5798 6.33816 82.8478 6.23604V4.84458C82.8478 4.39565 83.1861 3.95311 83.6286 3.95311C84.0754 3.95311 84.4158 4.39565 84.4158 4.84458V6.23604C86.4519 6.28923 90.6412 7.56792 90.6412 10.136C90.6412 11.1551 89.8795 11.7551 88.9923 11.7551C87.2881 11.7551 87.3158 8.95726 84.4179 8.90407V13.8742C87.8732 14.6061 90.9284 15.6273 90.9284 19.6549C90.9284 23.157 88.3136 24.9378 84.4179 25.1739V26.7909C84.4179 27.2377 84.0775 27.6824 83.6307 27.6824C83.1882 27.6824 82.8499 27.2377 82.8499 26.7909V25.1739C78.4308 25.0654 76.2351 22.4251 76.2351 20.357C76.2351 19.3145 76.8649 18.7102 77.8543 18.7102C80.784 18.7102 78.5074 22.3187 82.852 22.5038V17.0358C78.9734 16.3294 76.6245 14.6316 76.6245 11.7274Z" fill="white"/>
<path d="M19.9067 70.4517H6.27084C3.76026 70.4517 1.72626 72.4878 1.72626 74.9984V95.4511C1.72838 97.966 3.76451 99.9978 6.27084 99.9978H19.9067C22.4173 99.9978 24.4513 97.966 24.4513 95.4511V74.9984C24.4534 72.4878 22.4194 70.4517 19.9067 70.4517Z" fill="white"/>
<path d="M55.1465 54.5457H41.5106C39 54.5457 36.966 56.5818 36.966 59.0924V95.4554C36.966 97.9703 39.0022 100.002 41.5106 100.002H55.1465C57.6571 100.002 59.6932 97.9703 59.6932 95.4554V59.086C59.6932 56.5818 57.6592 54.5457 55.1465 54.5457Z" fill="white"/>
<path d="M90.3941 36.363H76.7604C74.2477 36.363 72.2137 38.3992 72.2137 40.9076V95.4511C72.2137 97.966 74.2498 99.9979 76.7604 99.9979H90.3941C92.9069 99.9979 94.9409 97.966 94.9409 95.4511V40.9098C94.943 38.3992 92.9069 36.363 90.3941 36.363Z" fill="white"/>
<path d="M63.1374 23.3443L51.8504 20.9848C50.9866 20.806 50.0973 21.1401 49.5675 21.8443C49.0377 22.5507 48.9654 23.4975 49.3802 24.2783L51.8823 28.9825L1.83658 54.7968C0.721709 55.3734 0.28342 56.7457 0.860004 57.8563C1.26425 58.6371 2.05785 59.0861 2.88124 59.0861C3.23229 59.0861 3.5876 59.0074 3.92164 58.8329L54.0142 32.993L56.3099 37.3078C56.7056 38.0525 57.4779 38.5142 58.3162 38.5142C58.3545 38.5142 58.3907 38.512 58.4311 38.5099C59.312 38.4652 60.0885 37.9163 60.4204 37.0993L64.7799 26.4229C65.0352 25.7974 65.0012 25.0932 64.682 24.4974C64.3608 23.9081 63.797 23.4847 63.1374 23.3443Z" fill="white"/>
</g>
<defs>
<clipPath id="clip0">
<rect width="100" height="100" fill="white"/>
</clipPath>
</defs>
</svg>
