<svg width="100" height="100" viewBox="0 0 100 100" fill="none" xmlns="http://www.w3.org/2000/svg">
<path d="M25 0C21.5625 0 18.75 2.8125 18.75 6.25V93.75C18.75 97.1875 21.5625 100 25 100H87.5C90.9375 100 93.75 97.1875 93.75 93.75V25L68.75 0H25Z" fill="#E2E5E7"/>
<path d="M75 25H93.75L68.75 0V18.75C68.75 22.1875 71.5625 25 75 25Z" fill="#B0B7BD"/>
<path d="M93.75 43.75L75 25H93.75V43.75Z" fill="#CAD1D8"/>
<path d="M81.25 81.25C81.25 82.9688 79.8438 84.375 78.125 84.375H9.375C7.65625 84.375 6.25 82.9688 6.25 81.25V50C6.25 48.2812 7.65625 46.875 9.375 46.875H78.125C79.8438 46.875 81.25 48.2812 81.25 50V81.25Z" fill="#C1345C"/>
<path d="M78.125 84.375H18.75V87.5H78.125C79.8438 87.5 81.25 86.0938 81.25 84.375V81.25C81.25 82.9688 79.8438 84.375 78.125 84.375Z" fill="#CAD1D8"/>
<path d="M27.112 67.4L24.856 69.752V74H20.992V57.2H24.856V65.048L32.296 57.2H36.616L29.656 64.688L37.024 74H32.488L27.112 67.4ZM51.7656 70.88V74H38.7576V57.2H51.4536V60.32H42.6216V63.968H50.4216V66.992H42.6216V70.88H51.7656ZM62.7591 68.048V74H58.8711V68L52.3671 57.2H56.4951L60.9831 64.664L65.4711 57.2H69.2871L62.7591 68.048Z" fill="white"/>
</svg>
