<svg width="84" height="101" viewBox="0 0 84 101" fill="none" xmlns="http://www.w3.org/2000/svg">
<path d="M66.3269 88.4849L66.3454 95.0368C66.3534 97.8485 68.6375 100.122 71.4505 100.122C71.4553 100.122 71.4605 100.122 71.4652 100.122C74.285 100.114 76.5643 97.8244 76.5563 95.0079L76.5378 88.4849H66.3269Z" fill="#294198"/>
<path d="M53.8244 87.1802L53.8237 95.0219C53.8235 97.8386 56.1091 100.122 58.9289 100.122C58.9291 100.122 58.9291 100.122 58.9293 100.122C61.7486 100.122 64.0346 97.8391 64.0346 95.0226L64.0351 88.4846H57.5362C56.133 88.485 54.8424 87.9956 53.8244 87.1802Z" fill="#294198"/>
<path d="M11.4197 17.8462C16.2895 17.8462 20.2373 13.9027 20.2373 9.03809C20.2373 4.1735 16.2895 0.22998 11.4197 0.22998C6.54984 0.22998 2.60205 4.1735 2.60205 9.03809C2.60205 13.9027 6.54984 17.8462 11.4197 17.8462Z" fill="#294198"/>
<path d="M33.3946 36.0988L20.0348 34.5332L11.2979 25.8614L19.5851 30.2015L22.6406 30.5595V26.7896C22.6406 23.5034 19.9738 20.8394 16.6839 20.8394H6.0615C2.77181 20.8394 0.104859 23.5034 0.104859 26.7896L2.11578e-05 95.0082C-0.00800987 97.8247 2.27128 100.115 5.09104 100.123C5.09604 100.123 5.10081 100.123 5.1058 100.123C7.91862 100.123 10.2029 97.8488 10.2109 95.037L10.3177 57.3324C10.3177 57.3276 10.3175 57.3229 10.3175 57.3181H12.5193L12.5221 95.0232C12.5224 97.8397 14.8084 100.123 17.6279 100.123C20.4475 100.123 22.7333 97.839 22.733 95.0225C22.7296 49.6576 22.6404 47.6762 22.6404 47.6762L17.0874 47.0256C15.3892 46.8265 13.3029 46.8668 12.0813 44.613L5.30007 31.8912L15.0799 41.5983C15.7556 42.2689 16.6371 42.6937 17.583 42.8045L32.4028 44.5412C34.739 44.8146 36.8505 43.1445 37.124 40.8154C37.3981 38.4839 35.7283 36.3722 33.3946 36.0988Z" fill="#294198"/>
<path d="M65.1361 17.8462C70.0059 17.8462 73.9537 13.9027 73.9537 9.03809C73.9537 4.1735 70.0059 0.22998 65.1361 0.22998C60.2663 0.22998 56.3185 4.1735 56.3185 9.03809C56.3185 13.9027 60.2663 17.8462 65.1361 17.8462Z" fill="#294198"/>
<path d="M81.0235 65.502H76.5639C76.5639 62.8102 76.5639 62.3427 76.5639 59.2055C76.5639 58.008 75.5921 57.0373 74.3933 57.0373H73.7176C73.9603 55.528 75.5849 45.4228 75.8439 43.8116C75.957 43.1091 75.8914 42.3897 75.6537 41.7191L70.6161 27.5097L70.9185 27.9585L76.4503 36.1719V26.7896C76.4503 23.5034 73.7834 20.8394 70.4937 20.8394H59.8712C56.5816 20.8394 53.9146 23.5034 53.9146 26.7896V28.3015L40.2775 36.0884C41.1563 37.6151 41.57 39.4266 41.3489 41.3101C41.0671 43.7099 39.8089 45.7565 38.0188 47.1049C38.2272 47.0262 38.4325 46.9323 38.6322 46.8185L53.9144 38.0921L53.8243 63.1192C55.6157 61.6857 57.387 61.8161 58.3039 61.8161V59.2055C58.3039 56.912 59.6481 54.8643 61.6689 53.9101L63.6081 41.8487L62.8308 33.0009L62.5951 30.3476L67.2702 43.5345C67.0449 44.9354 65.3512 55.4701 65.0994 57.0373H64.1646C62.9658 57.0373 61.994 58.008 61.994 59.2055C61.994 62.3161 61.994 62.8284 61.994 65.502H57.5346C56.2887 65.502 55.279 66.5109 55.279 67.7552V82.5457C55.279 83.7903 56.289 84.799 57.5346 84.799H81.0232C82.2691 84.799 83.2789 83.7901 83.2789 82.5457V67.7552C83.2791 66.5109 82.2691 65.502 81.0235 65.502ZM68.5072 62.6439C68.7358 62.6805 68.9628 62.6983 69.187 62.6983C70.1434 62.6983 71.0441 62.3722 71.7698 61.8158H72.2225V65.5018H66.3351V61.8158H66.5858C67.1293 62.2345 67.782 62.5277 68.5072 62.6439Z" fill="#294198"/>
</svg>
