<svg width="100" height="100" viewBox="0 0 100 100" fill="none" xmlns="http://www.w3.org/2000/svg">
<path d="M25 0C21.5625 0 18.75 2.8125 18.75 6.25V93.75C18.75 97.1875 21.5625 100 25 100H87.5C90.9375 100 93.75 97.1875 93.75 93.75V25L68.75 0H25Z" fill="#E2E5E7"/>
<path d="M75 25H93.75L68.75 0V18.75C68.75 22.1875 71.5625 25 75 25Z" fill="#B0B7BD"/>
<path d="M93.75 43.75L75 25H93.75V43.75Z" fill="#CAD1D8"/>
<path d="M81.25 81.25C81.25 82.9688 79.8438 84.375 78.125 84.375H9.375C7.65625 84.375 6.25 82.9688 6.25 81.25V50C6.25 48.2812 7.65625 46.875 9.375 46.875H78.125C79.8438 46.875 81.25 48.2812 81.25 50V81.25Z" fill="#C1345C"/>
<path d="M78.125 84.375H18.75V87.5H78.125C79.8438 87.5 81.25 86.0938 81.25 84.375V81.25C81.25 82.9688 79.8438 84.375 78.125 84.375Z" fill="#CAD1D8"/>
<path d="M26.264 57.2C27.752 57.2 29.04 57.448 30.128 57.944C31.232 58.44 32.08 59.144 32.672 60.056C33.264 60.968 33.56 62.048 33.56 63.296C33.56 64.528 33.264 65.608 32.672 66.536C32.08 67.448 31.232 68.152 30.128 68.648C29.04 69.128 27.752 69.368 26.264 69.368H22.88V74H18.992V57.2H26.264ZM26.048 66.2C27.216 66.2 28.104 65.952 28.712 65.456C29.32 64.944 29.624 64.224 29.624 63.296C29.624 62.352 29.32 61.632 28.712 61.136C28.104 60.624 27.216 60.368 26.048 60.368H22.88V66.2H26.048ZM36.3358 57.2H43.9678C45.7918 57.2 47.3998 57.552 48.7918 58.256C50.1998 58.944 51.2878 59.92 52.0558 61.184C52.8398 62.448 53.2318 63.92 53.2318 65.6C53.2318 67.28 52.8398 68.752 52.0558 70.016C51.2878 71.28 50.1998 72.264 48.7918 72.968C47.3998 73.656 45.7918 74 43.9678 74H36.3358V57.2ZM43.7758 70.808C45.4558 70.808 46.7918 70.344 47.7838 69.416C48.7918 68.472 49.2958 67.2 49.2958 65.6C49.2958 64 48.7918 62.736 47.7838 61.808C46.7918 60.864 45.4558 60.392 43.7758 60.392H40.2238V70.808H43.7758ZM60.0519 60.32V64.76H67.8279V67.88H60.0519V74H56.1639V57.2H68.8599V60.32H60.0519Z" fill="white"/>
</svg>
