<svg width="100" height="100" viewBox="0 0 100 100" fill="none" xmlns="http://www.w3.org/2000/svg">
<path d="M75.1846 93.0367H66.7229V87.0042H33.2771V93.0367H24.8154C23.1979 93.0367 21.8857 94.3482 21.8857 95.9664C21.8857 97.5846 23.1979 98.8961 24.8154 98.8961H75.1846C76.8021 98.8961 78.1143 97.5846 78.1143 95.9664C78.1143 94.3482 76.8021 93.0367 75.1846 93.0367Z" fill="#294198"/>
<path d="M0 72.7822C0 77.501 3.83911 81.3401 8.55713 81.3401H91.4429C96.1609 81.3401 100 77.501 100 72.7822V69.761H0V72.7822Z" fill="#294198"/>
<path d="M44.2574 31.408H50.354C49.7788 28.2326 48.2704 25.3029 45.958 22.9508C44.4695 21.4371 42.7346 20.2538 40.844 19.4329C42.7376 23.1552 43.9019 27.2225 44.2574 31.408Z" fill="#294198"/>
<path d="M44.2269 37.2673C43.8164 41.5047 42.5759 45.6086 40.5938 49.347C42.4973 48.5588 44.2498 47.4068 45.7634 45.9191C48.1819 43.5417 49.7589 40.5373 50.3517 37.2673H44.2269Z" fill="#294198"/>
<path d="M24.5247 31.4079C24.9344 27.1736 26.1727 23.0728 28.1517 19.3367C23.1499 21.4187 19.4031 25.9346 18.4014 31.4079H24.5247Z" fill="#294198"/>
<path d="M91.4429 1.17188H8.55713C3.83911 1.17188 0 5.01022 0 9.729V63.9015H100V9.729C100 5.01022 96.1609 1.17188 91.4429 1.17188ZM49.8711 50.0977C45.7069 54.1908 40.2122 56.4384 34.3803 56.4384C34.3155 56.4384 34.2522 56.4384 34.1873 56.4377C28.2837 56.3881 22.7531 54.0421 18.6142 49.8322C14.4753 45.623 12.2231 40.0536 12.2734 34.1499C12.3764 21.9643 22.3755 12.1338 34.5627 12.2368C40.4663 12.2871 45.9969 14.6332 50.1358 18.8423C54.2747 23.0522 56.5269 28.6217 56.4766 34.5245C56.427 40.4282 54.081 45.9587 49.8711 50.0977ZM86.4571 49.5438C86.425 50.7294 85.6766 51.7601 84.6046 52.182C84.3361 52.2873 84.0477 52.3552 83.7456 52.3773C83.6449 52.3849 83.5442 52.3872 83.4457 52.3842C83.2474 52.3788 83.0536 52.3537 82.8667 52.3102C82.6797 52.2667 82.4989 52.2057 82.3265 52.1278C82.2403 52.0897 82.1564 52.0462 82.0747 51.9997C81.9115 51.9066 81.7581 51.7975 81.6162 51.6754C81.0478 51.1871 80.6671 50.4822 80.6068 49.6773C80.6 49.5766 80.5969 49.4766 80.6 49.3774C80.616 48.7854 80.8113 48.2307 81.1363 47.773C81.2447 47.6196 81.3675 47.4777 81.5033 47.348C81.6391 47.2183 81.7871 47.1016 81.9458 46.9994C82.0251 46.949 82.1075 46.9017 82.1922 46.8575C82.531 46.6843 82.9086 46.5744 83.3122 46.5446C84.0187 46.492 84.6848 46.6942 85.2203 47.0734C85.3737 47.1809 85.5164 47.3038 85.6461 47.4388C85.7758 47.5739 85.8925 47.7219 85.9947 47.8806C86.2503 48.2773 86.4136 48.7411 86.451 49.2447C86.4578 49.3454 86.4601 49.4453 86.4571 49.5438ZM84.9937 34.3437H82.0641C80.4459 34.3437 79.1344 33.0315 79.1344 31.414C79.1344 30.4024 79.6463 29.5113 80.426 28.9848C80.8937 28.669 81.4568 28.4843 82.0641 28.4843H84.9937C85.6003 28.4843 86.1641 28.6682 86.6318 28.9848C87.4107 29.5113 87.9234 30.4024 87.9234 31.414C87.9234 33.0315 86.6112 34.3437 84.9937 34.3437ZM86.6318 22.1237C86.1641 22.4396 85.6003 22.6242 84.993 22.6242H82.0633C81.4568 22.6242 80.8929 22.4396 80.4253 22.1237C79.6463 21.5973 79.1336 20.7054 79.1336 19.6945C79.1336 18.6829 79.6463 17.7917 80.4253 17.2653C80.8929 16.9495 81.4568 16.7648 82.0633 16.7648H84.993C85.6003 16.7648 86.1641 16.9487 86.6318 17.2653C87.4107 17.7917 87.9227 18.6829 87.9227 19.6945C87.9227 20.7054 87.4107 21.5973 86.6318 22.1237Z" fill="#294198"/>
<path d="M30.4123 31.408H38.3774C37.9601 27.3865 36.6287 23.5116 34.4948 20.0852C32.2899 23.494 30.8907 27.3698 30.4123 31.408Z" fill="#294198"/>
<path d="M24.4858 37.2673H18.396C18.9713 40.4427 20.4796 43.3724 22.7921 45.7245C24.2798 47.2367 26.0124 48.4192 27.9007 49.2401C26.0078 45.5185 24.8413 41.4521 24.4858 37.2673Z" fill="#294198"/>
<path d="M38.3347 37.2673H30.3704C30.7877 41.288 32.119 45.1622 34.253 48.5886C36.4571 45.1805 37.8571 41.3048 38.3347 37.2673Z" fill="#294198"/>
</svg>
