<svg width="103" height="46" viewBox="0 0 103 46" fill="none" xmlns="http://www.w3.org/2000/svg">
<path d="M1.69533 31.8129C1.69533 31.8129 23.552 -1.75291 70.4085 15.4786" stroke="#294198" stroke-opacity="0.25" stroke-width="1.5" stroke-linecap="round" stroke-linejoin="round" stroke-dasharray="3 4"/>
<g clip-path="url(#clip0)">
<path d="M97.1171 32.4985C97.1292 32.498 97.1417 32.4989 97.1536 32.4974C97.1905 32.4931 97.2263 32.4814 97.262 32.4692C97.2711 32.4663 97.2802 32.4659 97.2892 32.4624C97.3357 32.4433 97.3796 32.4171 97.42 32.3835C97.4269 32.3779 97.4331 32.371 97.44 32.3649C97.4408 32.3638 97.4422 32.3634 97.4436 32.3626C97.4445 32.362 97.4447 32.3604 97.446 32.3596C97.4507 32.355 97.4559 32.3508 97.4601 32.3464C97.4981 32.3066 97.5269 32.2622 97.5494 32.2145C97.5543 32.2038 97.5559 32.1922 97.5602 32.1811C97.5764 32.1398 97.5879 32.0975 97.5923 32.0537C97.5943 32.0344 97.5934 32.0157 97.5929 31.9964C97.5926 31.9592 97.5884 31.9228 97.5796 31.8858C97.5749 31.8664 97.57 31.848 97.5629 31.8291C97.5582 31.8168 97.5576 31.8042 97.5519 31.7921L85.6544 4.68226C85.5694 4.48944 85.3729 4.3699 85.1625 4.38455C84.9522 4.3992 84.7736 4.54395 84.7162 4.74666L82.1601 13.7844L74.5555 16.893C74.5495 16.8933 74.5434 16.8961 74.5374 16.8969C74.4973 16.9003 74.4591 16.9079 74.4216 16.921C74.4025 16.9276 74.3845 16.934 74.3665 16.943C74.3225 16.9641 74.2828 16.9914 74.247 17.0246C74.2402 17.0311 74.2309 17.0331 74.2243 17.0402C74.2221 17.0421 74.2207 17.045 74.2192 17.0474C74.2112 17.0557 74.2058 17.0661 74.1981 17.0754C74.1746 17.1043 74.1538 17.1338 74.1377 17.1658C74.1352 17.171 74.1304 17.175 74.128 17.1806C74.1242 17.1891 74.1245 17.1977 74.1212 17.2061C74.108 17.2401 74.0984 17.2743 74.0927 17.3097C74.0906 17.3239 74.0874 17.3374 74.0864 17.3519C74.083 17.3986 74.0839 17.4459 74.0937 17.4918C74.0938 17.4923 74.0939 17.4928 74.094 17.4933C74.0944 17.4952 74.0958 17.497 74.0962 17.4989C74.0975 17.5073 74.0988 17.5158 74.1005 17.5241C74.1294 17.6594 74.2159 17.7686 74.3285 17.8391L79.0891 22.4834L76.612 28.9347C76.5773 29.0258 76.5702 29.1243 76.59 29.2176C76.601 29.2689 76.6204 29.3195 76.6477 29.3662C76.7246 29.4969 76.8569 29.5862 77.0076 29.6078L97.0222 32.4942C97.0402 32.497 97.0584 32.4988 97.0769 32.4994C97.0847 32.4998 97.0921 32.4988 97.0993 32.4988C97.105 32.4991 97.111 32.4988 97.1171 32.4985ZM92.7942 27.5042L81.6805 17.6175C81.6623 17.6015 81.6415 17.5901 81.6213 17.577C81.6141 17.5719 81.6079 17.5666 81.6004 17.5626C81.587 17.5547 81.5738 17.5478 81.5596 17.5411C81.546 17.5348 81.5323 17.5306 81.5184 17.5254C81.4853 17.5136 81.4517 17.5049 81.417 17.5C81.4101 17.4989 81.4044 17.496 81.3977 17.4954C81.3956 17.4954 81.3942 17.4936 81.3921 17.4935L76.7401 17.0796L82.4203 14.7575L92.7942 27.5042ZM75.9614 18.0369L80.6436 18.4322L79.7372 20.7925L79.478 21.4676L77.7061 19.7388L75.9614 18.0369ZM95.1602 28.8287L83.1258 14.0415L85.2987 6.35793L95.1602 28.8287ZM77.7686 28.7088L81.0576 20.1416L81.5561 18.8441L95.5241 31.2694L77.7686 28.7088Z" fill="#294198"/>
</g>
<defs>
<clipPath id="clip0">
<rect x="96.3416" y="1.99927" width="30" height="30" transform="rotate(77.9815 96.3416 1.99927)" fill="white"/>
</clipPath>
</defs>
</svg>
