<svg width="99" height="122" viewBox="0 0 99 122" fill="none" xmlns="http://www.w3.org/2000/svg">
<path d="M61.7936 92.1499C61.7936 92.1499 -12.6628 84.2963 36.409 17.0272" stroke="#294198" stroke-opacity="0.25" stroke-width="1.5" stroke-linecap="round" stroke-linejoin="round" stroke-dasharray="3 4"/>
<g clip-path="url(#clip0)">
<path d="M85.6718 92.6471C85.6784 92.6423 85.6856 92.6382 85.6917 92.633C85.7106 92.617 85.7262 92.5973 85.7415 92.5774C85.7454 92.5724 85.7503 92.5688 85.754 92.5636C85.7728 92.5358 85.7875 92.505 85.7975 92.4715C85.7994 92.4658 85.8002 92.4597 85.8018 92.4538C85.8018 92.4528 85.8025 92.4521 85.803 92.4512C85.8032 92.4505 85.8027 92.4495 85.8032 92.4486C85.8041 92.4443 85.8054 92.4401 85.8061 92.4361C85.8125 92.4 85.8121 92.3647 85.8071 92.3299C85.8058 92.3221 85.8024 92.3151 85.8007 92.3073C85.7945 92.2784 85.7852 92.2507 85.7715 92.2248C85.7655 92.2133 85.7581 92.2032 85.7507 92.1927C85.7368 92.1722 85.7211 92.1535 85.7025 92.1363C85.6928 92.1272 85.6832 92.1188 85.6723 92.1109C85.6652 92.1058 85.6602 92.0991 85.6526 92.0944L69.0428 81.4328C68.9245 81.3571 68.7712 81.3633 68.6599 81.4491C68.5485 81.5348 68.5027 81.6811 68.5457 81.8148L70.4615 87.776L67.3865 92.3082C67.3832 92.3106 67.3809 92.3144 67.3778 92.317C67.3568 92.3337 67.3384 92.352 67.3224 92.3732C67.3143 92.3839 67.3066 92.3941 67.2999 92.4057C67.2833 92.4337 67.2714 92.4635 67.2637 92.4951C67.2624 92.5012 67.2579 92.5058 67.2568 92.5121C67.2564 92.514 67.2566 92.5161 67.2567 92.518C67.2553 92.5256 67.2561 92.5333 67.2553 92.5413C67.2529 92.5661 67.2523 92.5901 67.2551 92.6139C67.2556 92.6176 67.2545 92.6216 67.2552 92.6256C67.2563 92.6317 67.2596 92.6364 67.2608 92.6423C67.2661 92.666 67.2734 92.6885 67.2833 92.7103C67.2874 92.719 67.2905 92.7277 67.2953 92.7361C67.3107 92.7633 67.3286 92.7892 67.351 92.8111C67.3512 92.8113 67.3515 92.8115 67.3517 92.8118C67.3527 92.8127 67.3541 92.8132 67.355 92.8141C67.3588 92.8183 67.3627 92.8225 67.3667 92.8264C67.4326 92.891 67.521 92.9197 67.6095 92.9173L71.9665 93.7391L72.9718 98.2351C72.9862 98.2985 73.0186 98.3558 73.0641 98.4003C73.089 98.4248 73.1185 98.4456 73.1509 98.4615C73.2418 98.5058 73.3483 98.5065 73.4398 98.4628L85.6176 92.6797C85.6286 92.6747 85.6393 92.6689 85.6499 92.6624C85.6543 92.6598 85.6581 92.6564 85.662 92.6538C85.6653 92.6519 85.6686 92.6495 85.6718 92.6471ZM81.4287 91.4694L71.6098 90.0812C71.5937 90.079 71.578 90.0804 71.562 90.0806C71.5561 90.0804 71.5506 90.0797 71.545 90.0803C71.5346 90.0809 71.5248 90.0819 71.5144 90.0834C71.5046 90.085 71.4954 90.0876 71.4858 90.0899C71.463 90.0955 71.4412 90.1031 71.4201 90.1132C71.4159 90.1151 71.4116 90.1156 71.4077 90.1178C71.4065 90.1185 71.4051 90.1181 71.4039 90.1188L68.6682 91.6056L70.9651 88.2203L81.4287 91.4694ZM68.5891 92.4245L71.3347 90.9161L71.7024 92.5611L71.8076 93.0316L70.1859 92.7256L68.5891 92.4245ZM83.2311 91.3317L71.0926 87.5624L69.4637 82.4945L83.2311 91.3317ZM73.5307 97.6829L72.1954 91.7125L71.9933 90.8082L84.3338 92.5525L73.5307 97.6829Z" fill="#294198"/>
</g>
<defs>
<clipPath id="clip0">
<rect x="73.9863" y="75.9995" width="20" height="20" transform="rotate(44.3724 73.9863 75.9995)" fill="white"/>
</clipPath>
</defs>
</svg>
