<svg width="93" height="115" viewBox="0 0 93 115" fill="none" xmlns="http://www.w3.org/2000/svg">
<path d="M35.7849 90.0498C35.7849 90.0498 108.002 70.2888 48.7187 11.8161" stroke="#294198" stroke-opacity="0.25" stroke-width="1.5" stroke-linecap="round" stroke-linejoin="round" stroke-dasharray="3 4"/>
<g clip-path="url(#clip0)">
<path d="M12.299 94.3923C12.2918 94.3886 12.2839 94.3857 12.2771 94.3815C12.2559 94.3688 12.2373 94.3519 12.219 94.3346C12.2143 94.3304 12.2089 94.3276 12.2044 94.3231C12.1814 94.2987 12.1619 94.2707 12.1466 94.2392C12.1439 94.2339 12.142 94.228 12.1395 94.2224C12.1394 94.2215 12.1386 94.2209 12.138 94.22C12.1376 94.2194 12.1379 94.2184 12.1373 94.2175C12.1358 94.2135 12.1337 94.2095 12.1324 94.2056C12.1203 94.171 12.1149 94.1361 12.1144 94.101C12.1144 94.0931 12.1165 94.0856 12.117 94.0777C12.1185 94.0482 12.1231 94.0194 12.1325 93.9915C12.1366 93.9792 12.1422 93.9681 12.1479 93.9565C12.1582 93.934 12.1708 93.913 12.1863 93.893C12.1945 93.8825 12.2025 93.8727 12.212 93.8632C12.2182 93.857 12.2221 93.8495 12.2288 93.8437L26.9016 80.6425C27.0062 80.5487 27.1584 80.53 27.2822 80.5967C27.406 80.6634 27.4747 80.8003 27.4539 80.9393L26.5247 87.1315L30.2908 91.1083C30.2944 91.1101 30.2973 91.1135 30.3007 91.1156C30.3241 91.1287 30.3453 91.1438 30.3645 91.1621C30.3742 91.1713 30.3834 91.1801 30.3919 91.1905C30.4129 91.2154 30.4294 91.2429 30.4421 91.2729C30.4444 91.2787 30.4495 91.2825 30.4516 91.2886C30.4524 91.2904 30.4525 91.2925 30.4527 91.2944C30.4553 91.3016 30.4557 91.3094 30.4579 91.3172C30.4642 91.3412 30.4687 91.3648 30.4697 91.3887C30.4698 91.3925 30.4716 91.3963 30.4715 91.4004C30.4715 91.4066 30.4689 91.4117 30.4687 91.4177C30.4673 91.442 30.4638 91.4654 30.4575 91.4885C30.4549 91.4977 30.4532 91.5068 30.4498 91.5159C30.439 91.5451 30.4255 91.5736 30.4069 91.5988C30.4067 91.5991 30.4065 91.5994 30.4063 91.5996C30.4055 91.6007 30.4042 91.6014 30.4034 91.6025C30.4003 91.6072 30.3972 91.612 30.3939 91.6165C30.3392 91.6908 30.2566 91.7334 30.1689 91.7453L26.0014 93.2593L25.7345 97.8585C25.7306 97.9234 25.7079 97.9852 25.6702 98.0364C25.6495 98.0646 25.6238 98.0899 25.5943 98.1109C25.5117 98.1692 25.4068 98.187 25.3094 98.1588L12.3578 94.4157C12.3461 94.4125 12.3346 94.4085 12.3231 94.4038C12.3183 94.4019 12.3141 94.3992 12.3098 94.3973C12.3062 94.3959 12.3026 94.3941 12.299 94.3923ZM16.2967 92.5455L25.7634 89.5917C25.7789 89.5869 25.7946 89.5857 25.8105 89.5833C25.8163 89.5822 25.8215 89.5807 25.8272 89.5803C25.8375 89.5792 25.8474 89.5786 25.8578 89.5785C25.8678 89.5784 25.8773 89.5796 25.8872 89.5802C25.9106 89.5821 25.9333 89.5861 25.9558 89.5926C25.9602 89.5939 25.9645 89.5937 25.9688 89.5952C25.97 89.5957 25.9714 89.595 25.9726 89.5955L28.9124 90.6216L26.0994 87.6511L16.2967 92.5455ZM29.1226 91.4171L26.1696 90.3713L26.072 92.0541L26.0441 92.5354L27.5953 91.9718L29.1226 91.4171ZM14.4956 92.7003L25.8674 87.0224L26.6575 81.7581L14.4956 92.7003ZM25.0939 97.4037L25.4486 91.2961L25.5021 90.371L13.6043 94.0831L25.0939 97.4037Z" fill="#294198"/>
</g>
<defs>
<clipPath id="clip0">
<rect width="20.0001" height="20.0006" transform="matrix(-0.592651 0.805459 0.805475 0.59263 21.146 76.0776)" fill="white"/>
</clipPath>
</defs>
</svg>
