<svg width="97" height="116" viewBox="0 0 97 116" fill="none" xmlns="http://www.w3.org/2000/svg">
<path d="M60.4071 90.5646C60.4071 90.5646 -12.5319 73.6728 44.3911 12.9032" stroke="#294198" stroke-opacity="0.25" stroke-width="1.5" stroke-linecap="round" stroke-linejoin="round" stroke-dasharray="3 4"/>
<g clip-path="url(#clip0)">
<path d="M84.0456 93.9755C84.0527 93.9716 84.0604 93.9684 84.067 93.9639C84.0877 93.9504 84.1056 93.9327 84.1232 93.9148C84.1278 93.9103 84.1331 93.9074 84.1374 93.9026C84.1594 93.8774 84.1778 93.8486 84.1918 93.8166C84.1943 93.8111 84.1959 93.8052 84.1982 93.7995C84.1983 93.7986 84.1991 93.7979 84.1997 93.7971C84.2 93.7964 84.1996 93.7954 84.2002 93.7945C84.2016 93.7904 84.2035 93.7863 84.2046 93.7824C84.2154 93.7474 84.2194 93.7123 84.2186 93.6772C84.2183 93.6693 84.2158 93.6619 84.215 93.654C84.2124 93.6246 84.2066 93.596 84.1961 93.5685C84.1916 93.5564 84.1854 93.5455 84.1794 93.5342C84.1681 93.512 84.1548 93.4916 84.1384 93.4722C84.1299 93.462 84.1215 93.4526 84.1116 93.4434C84.1051 93.4375 84.101 93.4301 84.094 93.4246L68.9113 80.8136C68.8031 80.724 68.6502 80.7113 68.5292 80.7828C68.4082 80.8544 68.3449 80.9939 68.3712 81.1319L69.5444 87.2825L65.9386 91.4051C65.9351 91.407 65.9323 91.4105 65.929 91.4127C65.9061 91.4268 65.8856 91.4427 65.8671 91.4617C65.8577 91.4713 65.8489 91.4805 65.8408 91.4912C65.8209 91.517 65.8054 91.5451 65.7939 91.5756C65.7919 91.5815 65.7869 91.5854 65.785 91.5916C65.7844 91.5934 65.7844 91.5956 65.7841 91.5974C65.7819 91.6048 65.7817 91.6126 65.7799 91.6204C65.7746 91.6447 65.771 91.6685 65.7709 91.6924C65.771 91.6962 65.7693 91.7 65.7696 91.7041C65.7699 91.7103 65.7726 91.7153 65.7731 91.7213C65.7754 91.7455 65.7799 91.7687 65.787 91.7916C65.7901 91.8007 65.7921 91.8097 65.7959 91.8186C65.8078 91.8474 65.8224 91.8754 65.842 91.8998C65.8422 91.9001 65.8424 91.9004 65.8426 91.9006C65.8434 91.9017 65.8448 91.9023 65.8456 91.9033C65.8489 91.908 65.8522 91.9126 65.8557 91.917C65.9132 91.9891 65.9975 92.0284 66.0856 92.0368L70.3096 93.3849L70.758 97.97C70.7645 98.0347 70.7897 98.0955 70.8293 98.1452C70.8512 98.1725 70.8778 98.1968 70.9081 98.2166C70.9929 98.2716 71.0984 98.2853 71.1947 98.2532L83.9877 94.0013C83.9993 93.9976 84.0107 93.9932 84.0219 93.988C84.0267 93.9859 84.0308 93.9831 84.035 93.981C84.0385 93.9795 84.0421 93.9775 84.0456 93.9755ZM79.9781 92.2882L70.4024 89.7107C70.3867 89.7066 70.3709 89.706 70.355 89.7043C70.3492 89.7034 70.3439 89.7021 70.3382 89.7019C70.3279 89.7012 70.3179 89.7011 70.3075 89.7013C70.2975 89.7016 70.2881 89.7032 70.2782 89.7042C70.2549 89.707 70.2324 89.7118 70.2102 89.7193C70.2058 89.7207 70.2015 89.7207 70.1973 89.7224C70.1961 89.7229 70.1947 89.7223 70.1935 89.7229L67.2966 90.8644L69.9899 87.785L79.9781 92.2882ZM67.118 91.6675L70.0273 90.5058L70.1913 92.1834L70.2383 92.6632L68.666 92.1614L67.118 91.6675ZM81.7839 92.3717L70.1968 87.1476L69.1993 81.9186L81.7839 92.3717ZM71.3801 97.4902L70.7843 91.4014L70.6942 90.4791L82.7291 93.7181L71.3801 97.4902Z" fill="#294198"/>
</g>
<defs>
<clipPath id="clip0">
<rect x="74.4817" y="76.0249" width="20" height="20" transform="rotate(51.3902 74.4817 76.0249)" fill="white"/>
</clipPath>
</defs>
</svg>
