<svg width="119" height="126" viewBox="0 0 119 126" fill="none" xmlns="http://www.w3.org/2000/svg">
<path d="M36.3042 88.7086C36.3042 88.7086 110.515 98.6324 78.6847 21.6886" stroke="#294198" stroke-opacity="0.25" stroke-width="1.5" stroke-linecap="round" stroke-linejoin="round" stroke-dasharray="3 4"/>
<g clip-path="url(#clip0)">
<path d="M12.9812 83.5615C12.976 83.5553 12.9699 83.5496 12.9653 83.5431C12.9507 83.5231 12.9402 83.5002 12.93 83.4772C12.9273 83.4715 12.9234 83.4668 12.9211 83.4609C12.9094 83.4295 12.9023 83.3961 12.9005 83.3611C12.9001 83.3552 12.9007 83.349 12.9005 83.3429C12.9007 83.342 12.9002 83.3411 12.9 83.3401C12.8999 83.3394 12.9006 83.3386 12.9004 83.3375C12.9005 83.3332 12.9002 83.3288 12.9005 83.3247C12.9028 83.2881 12.9115 83.2539 12.9246 83.2213C12.9277 83.214 12.9326 83.208 12.9361 83.2009C12.949 83.1742 12.9645 83.1495 12.9839 83.1275C12.9925 83.1178 13.0021 83.1098 13.0117 83.1013C13.0301 83.0846 13.0498 83.0701 13.0719 83.0578C13.0835 83.0513 13.0947 83.0454 13.1072 83.0403C13.1153 83.037 13.1218 83.0316 13.1302 83.0289L31.7858 76.5842C31.9187 76.5385 32.0661 76.5806 32.1541 76.6902C32.2422 76.7998 32.2521 76.9528 32.1789 77.0726L28.9115 82.4141L30.8315 87.5436C30.8341 87.5467 30.8355 87.5509 30.8378 87.5542C30.8543 87.5754 30.8678 87.5975 30.8784 87.6218C30.8838 87.6341 30.8888 87.6459 30.8926 87.6587C30.9022 87.6898 30.9068 87.7216 30.9067 87.7541C30.9066 87.7604 30.9098 87.7659 30.9094 87.7723C30.9094 87.7743 30.9087 87.7763 30.9082 87.7781C30.9077 87.7857 30.9051 87.7931 30.904 87.8011C30.9005 87.8257 30.8955 87.8492 30.8871 87.8716C30.8857 87.8751 30.8859 87.8793 30.8842 87.883C30.8818 87.8887 30.8774 87.8925 30.8748 87.8979C30.8642 87.9197 30.8518 87.9399 30.837 87.9587C30.831 87.9662 30.8259 87.9739 30.8192 87.9809C30.7979 88.0037 30.7743 88.0247 30.7474 88.0406C30.7471 88.0408 30.7468 88.041 30.7466 88.0412C30.7454 88.0418 30.7439 88.0419 30.7428 88.0426C30.7381 88.0458 30.7334 88.049 30.7285 88.0519C30.6492 88.099 30.5566 88.1061 30.4711 88.0829L26.0431 87.8543L24.0061 91.9865C23.9772 92.0447 23.9322 92.0928 23.8775 92.1253C23.8475 92.1432 23.814 92.1565 23.7787 92.1643C23.6799 92.1858 23.5763 92.1614 23.4976 92.0974L13.0263 83.6059C13.0168 83.5984 13.0077 83.5903 12.999 83.5815C12.9953 83.5779 12.9924 83.5738 12.9892 83.5703C12.9865 83.5676 12.9839 83.5645 12.9812 83.5615ZM17.3826 83.4174L27.2522 84.3835C27.2683 84.3852 27.2833 84.3902 27.2988 84.3942C27.3046 84.3954 27.31 84.3961 27.3154 84.3979C27.3253 84.4009 27.3346 84.4043 27.3443 84.4082C27.3536 84.412 27.3618 84.4168 27.3707 84.4212C27.3915 84.4321 27.4109 84.4445 27.429 84.4594C27.4326 84.4622 27.4366 84.4637 27.44 84.4668C27.4409 84.4677 27.4424 84.4676 27.4434 84.4686L29.7515 86.5586L28.3174 82.727L17.3826 83.4174ZM29.6353 87.3731L27.3227 85.2598L26.5775 86.7717L26.3643 87.2042L28.0125 87.2892L29.6353 87.3731ZM15.6634 82.8586L28.3486 82.0576L31.1265 77.5167L15.6634 82.8586ZM23.5932 91.3181L26.2985 85.8308L26.7081 84.9996L14.3039 83.785L23.5932 91.3181Z" fill="#294198"/>
</g>
<defs>
<clipPath id="clip0">
<rect width="20.0001" height="20.0006" transform="matrix(-0.859544 0.511062 0.511083 0.859531 28.2625 70.1384)" fill="white"/>
</clipPath>
</defs>
</svg>
