<svg width="104" height="67" viewBox="0 0 104 67" fill="none" xmlns="http://www.w3.org/2000/svg">
<path d="M80.7736 35.0859C80.7736 35.0859 46.8037 64.5541 1.56067 31.466" stroke="#294198" stroke-opacity="0.25" stroke-width="1.5" stroke-linecap="round" stroke-linejoin="round" stroke-dasharray="3 4"/>
<g clip-path="url(#clip0)">
<path d="M103.162 12.3045C103.164 12.2925 103.167 12.2804 103.167 12.2684C103.169 12.2313 103.164 12.194 103.158 12.1567C103.157 12.1472 103.158 12.1382 103.157 12.1288C103.146 12.0797 103.128 12.0318 103.102 11.9862C103.098 11.9783 103.092 11.971 103.087 11.9632C103.086 11.9622 103.086 11.9607 103.085 11.9592C103.085 11.9583 103.083 11.9578 103.083 11.9563C103.079 11.951 103.076 11.9451 103.072 11.9402C103.04 11.8958 103.001 11.8596 102.958 11.8291C102.948 11.8224 102.937 11.8188 102.927 11.8126C102.889 11.7894 102.85 11.7707 102.807 11.7586C102.789 11.7533 102.77 11.7509 102.751 11.748C102.714 11.7418 102.678 11.7395 102.64 11.7418C102.62 11.7429 102.601 11.7446 102.581 11.7482C102.568 11.7507 102.556 11.7491 102.543 11.7525L73.7663 18.7103C73.5615 18.7602 73.4094 18.9327 73.3869 19.1423C73.3644 19.352 73.4756 19.5532 73.6651 19.6453L82.1144 23.747L83.8409 31.779C83.8401 31.785 83.8418 31.7914 83.8415 31.7974C83.8378 31.8375 83.8386 31.8765 83.845 31.9158C83.8481 31.9356 83.8513 31.9545 83.8569 31.9738C83.87 32.0209 83.8899 32.0647 83.9163 32.1058C83.9215 32.1136 83.9219 32.1231 83.9276 32.1309C83.9292 32.1333 83.9318 32.1352 83.9338 32.1372C83.9406 32.1464 83.9499 32.1536 83.9577 32.1629C83.9821 32.191 84.0075 32.2167 84.0362 32.2382C84.0408 32.2415 84.0439 32.2469 84.0491 32.2503C84.0567 32.2555 84.0653 32.2567 84.0729 32.2615C84.104 32.2804 84.136 32.2958 84.1699 32.3077C84.1836 32.3122 84.1962 32.3178 84.2104 32.3213C84.2557 32.3328 84.3024 32.3402 84.3494 32.3387C84.3499 32.3387 84.3504 32.3386 84.3509 32.3386C84.3529 32.3386 84.3548 32.3375 84.3568 32.3374C84.3653 32.3376 84.3738 32.3378 84.3823 32.3376C84.5206 32.3329 84.6433 32.2669 84.7325 32.1684L90.1398 28.2963L96.0565 31.8666C96.1402 31.9167 96.2359 31.941 96.3313 31.9378C96.3837 31.9361 96.4368 31.9258 96.4877 31.9071C96.6298 31.8544 96.741 31.7397 96.7886 31.5952L103.141 12.3972C103.147 12.38 103.152 12.3623 103.156 12.3442C103.158 12.3366 103.158 12.3291 103.159 12.3221C103.16 12.3166 103.161 12.3105 103.162 12.3045ZM97.4867 15.6844L85.8039 24.8915C85.7849 24.9066 85.7701 24.9251 85.7537 24.9427C85.7474 24.9489 85.7411 24.9541 85.7358 24.9608C85.7257 24.9726 85.7166 24.9844 85.7075 24.9972C85.6989 25.0095 85.6924 25.0222 85.6848 25.0349C85.6673 25.0655 85.6529 25.097 85.642 25.1303C85.6397 25.1369 85.6359 25.142 85.6341 25.1486C85.6337 25.1506 85.6317 25.1517 85.6313 25.1537L84.4077 29.661L83.118 23.6615L97.4867 15.6844ZM85.2136 30.5956L86.4241 26.0552L88.5888 27.3616L89.208 27.7352L87.1952 29.1764L85.2136 30.5956ZM99.2057 13.5873L82.5369 22.8413L75.3536 19.3544L99.2057 13.5873ZM96.0371 30.6883L88.1797 25.9475L86.9897 25.2292L101.672 13.6572L96.0371 30.6883Z" fill="#294198"/>
</g>
<defs>
<clipPath id="clip0">
<rect x="72.9995" y="7.71826" width="30" height="30" transform="rotate(-1.91601 72.9995 7.71826)" fill="white"/>
</clipPath>
</defs>
</svg>
