<svg width="100" height="100" viewBox="0 0 100 100" fill="none" xmlns="http://www.w3.org/2000/svg">
<path d="M25 0C21.5625 0 18.75 2.8125 18.75 6.25V93.75C18.75 97.1875 21.5625 100 25 100H87.5C90.9375 100 93.75 97.1875 93.75 93.75V25L68.75 0H25Z" fill="#E2E5E7"/>
<path d="M75 25H93.75L68.75 0V18.75C68.75 22.1875 71.5625 25 75 25Z" fill="#B0B7BD"/>
<path d="M93.75 43.75L75 25H93.75V43.75Z" fill="#CAD1D8"/>
<path d="M81.25 81.25C81.25 82.9688 79.8438 84.375 78.125 84.375H9.375C7.65625 84.375 6.25 82.9688 6.25 81.25V50C6.25 48.2812 7.65625 46.875 9.375 46.875H78.125C79.8438 46.875 81.25 48.2812 81.25 50V81.25Z" fill="#C1345C"/>
<path d="M78.125 84.375H18.75V87.5H78.125C79.8438 87.5 81.25 86.0938 81.25 84.375V81.25C81.25 82.9688 79.8438 84.375 78.125 84.375Z" fill="#CAD1D8"/>
<path d="M28.264 57.2C29.752 57.2 31.04 57.448 32.128 57.944C33.232 58.44 34.08 59.144 34.672 60.056C35.264 60.968 35.56 62.048 35.56 63.296C35.56 64.528 35.264 65.608 34.672 66.536C34.08 67.448 33.232 68.152 32.128 68.648C31.04 69.128 29.752 69.368 28.264 69.368H24.88V74H20.992V57.2H28.264ZM28.048 66.2C29.216 66.2 30.104 65.952 30.712 65.456C31.32 64.944 31.624 64.224 31.624 63.296C31.624 62.352 31.32 61.632 30.712 61.136C30.104 60.624 29.216 60.368 28.048 60.368H24.88V66.2H28.048ZM45.6078 57.2C47.0958 57.2 48.3838 57.448 49.4718 57.944C50.5758 58.44 51.4238 59.144 52.0158 60.056C52.6078 60.968 52.9038 62.048 52.9038 63.296C52.9038 64.528 52.6078 65.608 52.0158 66.536C51.4238 67.448 50.5758 68.152 49.4718 68.648C48.3838 69.128 47.0958 69.368 45.6078 69.368H42.2238V74H38.3358V57.2H45.6078ZM45.3918 66.2C46.5598 66.2 47.4478 65.952 48.0558 65.456C48.6638 64.944 48.9678 64.224 48.9678 63.296C48.9678 62.352 48.6638 61.632 48.0558 61.136C47.4478 60.624 46.5598 60.368 45.3918 60.368H42.2238V66.2H45.3918ZM58.6908 60.368H53.3148V57.2H67.9548V60.368H62.5788V74H58.6908V60.368Z" fill="white"/>
</svg>
