<svg width="100" height="100" viewBox="0 0 100 100" fill="none" xmlns="http://www.w3.org/2000/svg">
<path d="M25 0C21.5625 0 18.75 2.8125 18.75 6.25V93.75C18.75 97.1875 21.5625 100 25 100H87.5C90.9375 100 93.75 97.1875 93.75 93.75V25L68.75 0H25Z" fill="#E2E5E7"/>
<path d="M75 25H93.75L68.75 0V18.75C68.75 22.1875 71.5625 25 75 25Z" fill="#B0B7BD"/>
<path d="M93.75 43.75L75 25H93.75V43.75Z" fill="#CAD1D8"/>
<path d="M46.3296 68.7618L46.0328 71.8772C45.8726 73.5552 47.1094 74.9155 48.7948 74.9155H63.2043C64.8898 74.9155 66.1587 73.5528 66.0389 71.8711L65.8168 68.761H46.3296V68.7618Z" fill="#C1345C"/>
<path d="M76 68.9642V51.7712C76 50.0857 74.6335 48.7192 72.948 48.7192H67.6489V56.8515H44.3512V48.7192H39.052C37.3665 48.7192 36 50.0857 36 51.7712V68.9641C36 70.6496 37.3665 72.0161 39.052 72.0161H44.3511V66.7414H67.6481V72.0161H72.9472C74.6335 72.0162 76 70.6497 76 68.9642ZM71.8615 54.4334C71.0725 54.4334 70.4324 53.794 70.4324 53.005C70.4324 52.2161 71.0725 51.5767 71.8615 51.5767C72.6498 51.5767 73.2899 52.2161 73.2899 53.005C73.2899 53.794 72.6498 54.4334 71.8615 54.4334Z" fill="#C1345C"/>
<path d="M65.5492 40.9648V40.2697L60.1707 35.0842H59.4015C59.4 35.0842 59.4 35.0842 59.4 35.0842C59.3985 35.0842 59.3985 35.0842 59.3985 35.0842H49.4129C47.8153 35.0842 46.5158 36.3821 46.5158 37.9767V54.8744H65.549V41.0205C65.5492 41.0021 65.5499 40.9838 65.5492 40.9648ZM62.7023 51.8209C62.7023 51.8468 62.6825 51.8651 62.6542 51.8651H49.4128C49.3838 51.8651 49.3631 51.8467 49.3631 51.8209V37.976C49.3631 37.9501 49.3845 37.931 49.4128 37.931H57.7945V39.6715C57.7945 41.8491 59.6623 42.6396 60.9197 42.6396H62.7021C62.7023 42.6396 62.7023 51.8209 62.7023 51.8209Z" fill="#C1345C"/>
</svg>
