<svg width="100" height="101" viewBox="0 0 100 101" fill="none" xmlns="http://www.w3.org/2000/svg">
<g clip-path="url(#clip0)">
<path d="M78.7888 14.4599L30.1669 37.2935V51.9561L21.6849 48.1886V33.526L70.3068 10.6925L53.9757 3.43908C51.7889 2.4679 48.2108 2.4679 46.0241 3.43908L5.80986 21.3006C2.60611 22.7235 -0.00827291 26.7532 -0.000102974 30.2556L0.0989166 72.1279C0.10725 75.6675 2.77996 79.7016 6.03813 81.0931L46.147 98.2204C48.2622 99.1237 51.7236 99.1237 53.8389 98.2209L93.9615 81.0929C97.2195 79.7021 99.8924 75.6684 99.9007 72.1289L99.9999 30.2556C100.008 26.7532 97.3938 22.7235 94.1899 21.3006L78.7888 14.4599ZM90.9146 47.9764L88.5612 49.0673L88.5135 65.6104C88.5113 66.3333 87.8721 67.1938 87.0875 67.532L83.5641 69.0515C82.7917 69.3846 82.1669 69.0758 82.1664 68.3622L82.1545 52.0364L79.8749 53.0928C78.8027 53.5897 78.1316 52.8106 78.6639 51.6889L84.113 40.2052C84.663 39.046 86.042 38.3773 86.594 39.006L92.1857 45.3737C92.7439 46.0093 92.0354 47.4572 90.9146 47.9764ZM67.9077 74.5439C67.9138 75.2365 67.3277 76.0521 66.6004 76.3658L63.3331 77.7748C62.6166 78.0837 62.0304 77.7795 62.0223 77.0957L61.8309 61.4547L59.7169 62.4344C58.7226 62.8952 58.0881 62.1393 58.5721 61.0725L63.5247 50.156C64.0242 49.0547 65.3014 48.4354 65.8224 49.0452L71.1004 55.2209C71.6275 55.8374 70.984 57.2126 69.9465 57.6933L67.7671 58.7033L67.9077 74.5439ZM94.804 70.0024C94.8015 70.3657 94.4746 70.7965 94.0739 70.9648L56.7545 86.626C56.4063 86.7723 56.1198 86.619 56.1148 86.2839L56.0862 84.462C56.0809 84.1261 56.359 83.7335 56.7079 83.5852L94.0938 67.6763C94.495 67.5056 94.819 67.6623 94.8166 68.0266L94.804 70.0024Z" fill="white"/>
</g>
<defs>
<clipPath id="clip0">
<rect y="0.85791" width="100" height="99.8925" fill="white"/>
</clipPath>
</defs>
</svg>
