<svg width="160" height="160" viewBox="0 0 160 160" fill="none" xmlns="http://www.w3.org/2000/svg">
<path d="M34.9802 121.094C35.8807 120.198 36.387 118.98 36.387 117.71C36.387 116.44 35.8807 115.222 34.9802 114.326L34.9031 114.269C34.722 114.069 34.4513 113.977 34.1859 114.023C25.7667 115.24 17.6386 110.42 14.6674 102.449C11.6962 94.4783 14.6864 85.5144 21.848 80.9235C29.0097 76.3327 38.4034 77.358 44.4059 83.3858C48.4432 87.4215 50.3096 93.1429 49.4288 98.783C49.3999 98.9382 49.4283 99.0986 49.5088 99.2344L49.7945 99.5201C51.6527 101.375 54.662 101.375 56.5202 99.5201L76.0459 80.0001L56.5231 60.4772C52.4352 56.3863 52.4352 49.7568 56.5231 45.6658L56.8088 45.3801C57.1406 45.0475 57.5142 44.7594 57.9202 44.523C58.2914 44.2734 58.6978 44.0808 59.1259 43.9515C60.139 43.5907 61.2304 43.5088 62.2859 43.7144C66.1112 44.2931 69.9833 43.0145 72.7116 40.2715C75.3971 37.5701 76.6934 33.7851 76.2278 30.0045C75.7623 26.2239 73.5865 22.8665 70.3259 20.8972C66.4474 18.5125 61.5633 18.4872 57.6602 20.8315C53.3586 23.3847 51.0238 28.2821 51.7488 33.2315C51.9102 34.3582 51.7874 35.5073 51.3916 36.5744C51.0882 37.3384 50.6432 38.0382 50.0802 38.6372C50.0545 38.6658 49.8288 38.8944 49.7945 38.923C49.6756 39.059 49.5477 39.1869 49.4116 39.3058C49.2577 39.4548 49.0956 39.595 48.9259 39.7258C48.5259 40.0258 48.3116 40.1858 48.0688 40.3287C47.5042 40.7168 46.8927 41.0317 46.2488 41.2658C43.7345 42.2585 40.935 42.2472 38.4288 41.2344C38.1925 41.1515 37.9607 41.0561 37.7345 40.9487L34.9859 38.9487L21.6488 25.5772C-7.15069 56.1779 -7.21823 103.889 21.4945 134.572L34.9802 121.094Z" fill="#C1345C"/>
<path d="M98.8578 110.66C99.0013 110.692 99.1514 110.678 99.2864 110.62L99.7407 110.197C100.582 109.318 101.046 108.145 101.032 106.929C101.037 105.666 100.536 104.453 99.6407 103.563L80.0864 84.0399L60.5721 103.563C56.4805 107.649 49.8523 107.649 45.7607 103.563L45.475 103.277C44.1071 101.871 43.4796 99.904 43.7807 97.9656C44.3978 94.1079 43.1257 90.1885 40.3607 87.4285C37.6965 84.7372 33.9419 83.4221 30.1807 83.8628C26.3627 84.3175 22.9665 86.5041 20.9721 89.7914C18.5898 93.6629 18.5623 98.5389 20.9007 102.437C23.478 106.74 28.3836 109.078 33.3492 108.371C35.3289 108.04 37.3476 108.677 38.7778 110.086L38.8635 110.151C43.0283 114.245 43.096 120.937 39.015 125.114L25.5235 138.609C56.2129 167.207 103.825 167.096 134.381 138.354L120.952 124.926C120.915 124.891 120.904 124.877 120.906 124.877C120.828 124.822 120.753 124.763 120.681 124.7C120.626 124.671 120.441 124.52 120.395 124.486C118.512 123.245 116.015 123.506 114.429 125.109L114.055 125.449C114.046 125.606 114.054 125.764 114.078 125.92C114.845 131.112 113.315 136.381 109.886 140.355C106.458 144.328 101.469 146.613 96.2207 146.614C92.9024 146.621 89.6483 145.7 86.8264 143.954C86.3359 143.653 85.8671 143.318 85.4235 142.951C84.2503 142.104 83.1953 141.104 82.2864 139.977L82.0893 139.734C81.8862 139.49 81.6955 139.235 81.5178 138.971C77.3092 133.082 77.0312 125.246 80.812 119.073C84.5928 112.9 91.699 109.587 98.8578 110.66Z" fill="#C1345C"/>
<path d="M39.3061 35.1429C39.3362 35.1648 39.3648 35.1887 39.3918 35.2143L39.5204 35.3086C39.549 35.3258 39.7633 35.4858 39.7918 35.5029C40.0186 35.659 40.2632 35.7876 40.5204 35.8858C41.691 36.3715 43.0046 36.3827 44.1833 35.9172C44.4382 35.8264 44.681 35.7046 44.9061 35.5543L45.2518 35.3086L45.5376 35.1C45.6109 35.0152 45.6933 34.9385 45.7833 34.8715C45.6988 34.9313 45.6203 34.9993 45.549 35.0743C45.5747 35.0458 45.7261 34.8829 45.7547 34.8572C45.8783 34.7507 45.9818 34.623 46.0604 34.48C46.1055 34.3212 46.1142 34.1542 46.0861 33.9915C45.0836 27.0727 48.1708 20.1979 54.008 16.3505C59.8451 12.5031 67.3802 12.3766 73.3433 16.0258C78.0827 18.9175 81.2354 23.8218 81.8984 29.334C82.5615 34.8462 80.6617 40.3583 76.7433 44.2915C72.7097 48.3291 66.9924 50.2013 61.3518 49.3315C61.2271 49.3021 61.0964 49.3121 60.9776 49.36L60.5718 49.7143C58.7128 51.5742 58.7128 54.5888 60.5718 56.4486L80.0947 75.9715L99.6176 56.4486C103.732 52.3988 110.335 52.3988 114.449 56.4486L114.783 56.7829C116.141 58.2078 116.741 60.193 116.4 62.1315C116.015 64.8553 116.525 67.6305 117.852 70.04C118.177 70.6159 118.559 71.1568 118.995 71.6543C119.198 71.9266 119.422 72.1835 119.663 72.4229C119.883 72.6429 120.106 72.8429 120.323 73.0372L120.732 73.4086C123.514 75.699 127.155 76.6647 130.706 76.054C134.257 75.4432 137.366 73.3167 139.223 70.2286C141.602 66.3555 141.627 61.4805 139.289 57.5829C139.138 57.3139 138.964 57.0586 138.769 56.82C138.343 56.2486 138.009 55.8315 137.678 55.4515C137.532 55.288 137.376 55.1335 137.212 54.9886C137.132 54.9172 137.058 54.8429 136.986 54.7686C136.806 54.6276 136.643 54.4655 136.5 54.2858C133.791 52.1149 130.304 51.1614 126.866 51.6515C124.872 51.9856 122.838 51.3427 121.398 49.9229C121.383 49.9058 121.195 49.7229 121.178 49.7058C117.143 45.5941 117.143 39.0089 121.178 34.8972L134.246 21.8C103.735 -6.73654 56.3593 -6.84754 25.7147 21.5458L39.0204 34.8572L39.3061 35.1429Z" fill="#C1345C"/>
<path d="M125.22 38.9058C124.32 39.8018 123.813 41.0198 123.813 42.2901C123.813 43.5604 124.32 44.7784 125.22 45.6744C125.412 45.9078 125.713 46.0229 126.012 45.9772C131.077 45.253 136.213 46.6934 140.163 49.9458C140.325 50.0677 140.478 50.2014 140.62 50.3458C140.802 50.4952 140.972 50.6586 141.129 50.8344C141.41 51.0907 141.677 51.3626 141.929 51.6487C142.405 52.1829 142.853 52.7428 143.269 53.3258C143.611 53.7447 143.917 54.192 144.183 54.663C147.21 59.819 147.496 66.1373 144.948 71.5459C142.399 76.9545 137.344 80.7557 131.44 81.703C126.245 82.5285 120.948 81.0574 116.923 77.6715L116.477 77.2658C116.192 77.003 115.883 76.7315 115.597 76.4429C115.191 76.0471 114.816 75.6212 114.474 75.1687C113.829 74.4142 113.267 73.5923 112.797 72.7172C110.882 69.2167 110.159 65.188 110.737 61.2401C110.783 61.0626 110.75 60.8739 110.646 60.723L110.409 60.4858C109.513 59.582 108.293 59.0736 107.02 59.0736C105.747 59.0736 104.527 59.582 103.632 60.4858L84.1258 80.0001L103.477 99.3515C105.527 101.292 106.705 103.979 106.743 106.801C106.78 109.623 105.675 112.34 103.677 114.334L103.263 114.717C101.857 116.064 99.8904 116.656 97.9744 116.309C93.0657 115.576 88.1973 117.862 85.6255 122.107C83.0537 126.352 83.2814 131.725 86.2029 135.737C86.2904 135.873 86.3858 136.004 86.4887 136.129L86.7229 136.414C87.3655 137.186 88.1072 137.869 88.9287 138.446C89.2232 138.689 89.5334 138.912 89.8572 139.114C93.7402 141.503 98.6304 141.531 102.54 139.186C106.84 136.631 109.173 131.735 108.449 126.786C108.105 124.788 108.743 122.747 110.163 121.3L110.526 120.969C114.035 117.534 119.468 117.02 123.56 119.734C123.817 119.889 124.06 120.066 124.286 120.263C124.54 120.451 124.778 120.661 124.997 120.889L138.426 134.317C166.816 103.71 166.755 56.3743 138.286 25.8401L125.22 38.9058Z" fill="#C1345C"/>
</svg>
