<svg width="96" height="146" viewBox="0 0 96 146" fill="none" xmlns="http://www.w3.org/2000/svg">
<path d="M43.7197 128.345C44.8453 127.226 45.4781 125.705 45.4781 124.119C45.4781 122.533 44.8453 121.012 43.7197 119.893L43.6232 119.822C43.3968 119.573 43.0585 119.457 42.7268 119.515C32.2028 121.035 22.0427 115.017 18.3287 105.064C14.6147 95.1105 18.3524 83.9176 27.3045 78.1852C36.2565 72.4527 47.9986 73.7331 55.5018 81.2597C60.5484 86.2989 62.8814 93.4431 61.7804 100.486C61.7442 100.679 61.7798 100.88 61.8804 101.049L62.2375 101.406C64.5603 103.722 68.3219 103.722 70.6447 101.406L95.0518 77.0321L70.6483 52.6547C65.5384 47.5465 65.5384 39.2684 70.6483 34.1602L71.0054 33.8035C71.4202 33.3881 71.8872 33.0284 72.3947 32.7332C72.8586 32.4216 73.3666 32.1811 73.9018 32.0197C75.1681 31.5691 76.5324 31.4669 77.8518 31.7235C82.6334 32.4462 87.4735 30.8496 90.884 27.4246C94.2408 24.0514 95.8611 19.3252 95.2792 14.6046C94.6973 9.8839 91.9776 5.69158 87.9018 3.23266C83.0536 0.254953 76.9486 0.223311 72.0697 3.1506C66.6926 6.33859 63.7742 12.4538 64.6804 18.634C64.8821 20.0408 64.7287 21.4756 64.234 22.8081C63.8546 23.7621 63.2984 24.636 62.5947 25.3839C62.5625 25.4196 62.2804 25.705 62.2375 25.7407C62.0889 25.9106 61.929 26.0703 61.759 26.2187C61.5666 26.4048 61.3639 26.5799 61.1518 26.7432C60.6518 27.1178 60.384 27.3175 60.0804 27.4959C59.3747 27.9806 58.6102 28.3738 57.8054 28.6661C54.6626 29.9056 51.1631 29.8916 48.0304 28.6269C47.735 28.5234 47.4453 28.4043 47.1625 28.2701L43.7268 25.7728L27.0554 9.07639C-8.94397 47.2862 -9.0284 106.862 26.8625 145.173L43.7197 128.345Z" fill="#C1345C"/>
</svg>
