<svg width="145" height="96" viewBox="0 0 145 96" fill="none" xmlns="http://www.w3.org/2000/svg">
<path d="M16.9893 44.4273C17.0269 44.4547 17.0627 44.4845 17.0964 44.5165L17.2571 44.6342C17.2929 44.6556 17.5607 44.8554 17.5964 44.8768C17.8799 45.0718 18.1856 45.2323 18.5071 45.3549C19.9703 45.9614 21.6123 45.9754 23.0857 45.3941C23.4044 45.2808 23.7079 45.1287 23.9893 44.9411L24.4214 44.6342L24.7786 44.3738C24.8703 44.2678 24.9733 44.1721 25.0857 44.0884C24.9801 44.1631 24.882 44.2479 24.7929 44.3417C24.825 44.306 25.0143 44.1027 25.05 44.0706C25.2045 43.9376 25.3339 43.7781 25.4322 43.5996C25.4885 43.4012 25.4994 43.1928 25.4643 42.9896C24.2112 34.3503 28.0701 25.766 35.3666 20.9619C42.6631 16.1578 52.0819 15.9998 59.5357 20.5564C65.46 24.1673 69.4009 30.2911 70.2297 37.174C71.0585 44.0569 68.6838 50.9396 63.7857 55.8508C58.7437 60.8925 51.5972 63.2301 44.5464 62.1441C44.3905 62.1074 44.2271 62.1198 44.0786 62.1797L43.5714 62.6221C41.2476 64.9445 41.2476 68.7087 43.5714 71.031L67.975 95.4085L92.3786 71.031C97.5217 65.9741 105.775 65.9741 110.918 71.031L111.336 71.4484C113.033 73.2276 113.783 75.7064 113.357 78.127C112.876 81.5281 113.512 84.9934 115.171 88.0021C115.577 88.7211 116.056 89.3966 116.6 90.0178C116.855 90.3578 117.134 90.6786 117.436 90.9775C117.711 91.2522 117.989 91.5019 118.261 91.7445L118.771 92.2083C122.249 95.0682 126.8 96.274 131.239 95.5114C135.678 94.7489 139.565 92.0935 141.886 88.2376C144.859 83.4014 144.891 77.3141 141.968 72.4473C141.78 72.1114 141.562 71.7927 141.318 71.4948C140.786 70.7812 140.368 70.2604 139.954 69.7859C139.771 69.5818 139.577 69.3888 139.371 69.2079C139.271 69.1188 139.179 69.026 139.089 68.9332C138.864 68.7571 138.66 68.5547 138.482 68.3303C135.095 65.6196 130.736 64.4291 126.439 65.041C123.946 65.4581 121.404 64.6554 119.604 62.8826C119.586 62.8612 119.35 62.6328 119.329 62.6114C114.285 57.4773 114.285 49.2546 119.329 44.1205L135.664 27.7666C97.5253 -7.86601 38.3058 -8.00461 0 27.4491L16.6321 44.0706L16.9893 44.4273Z" fill="#C1345C"/>
</svg>
