<svg width="95" height="145" viewBox="0 0 95 145" fill="none" xmlns="http://www.w3.org/2000/svg">
<path d="M51.7211 17.2917C50.5956 18.4105 49.9627 19.9313 49.9627 21.5175C49.9627 23.1037 50.5956 24.6245 51.7211 25.7433C51.9611 26.0348 52.337 26.1785 52.7104 26.1215C59.042 25.2172 65.4622 27.0157 70.3997 31.0769C70.6022 31.2291 70.7932 31.3961 70.9711 31.5764C71.1986 31.7629 71.4111 31.9669 71.6069 32.1864C71.9588 32.5066 72.2927 32.846 72.6069 33.2032C73.2029 33.8703 73.7621 34.5694 74.2819 35.2974C74.7097 35.8205 75.092 36.379 75.4247 36.967C79.2089 43.4052 79.5666 51.2946 76.3805 58.0481C73.1944 64.8016 66.8756 69.548 59.4962 70.7308C53.0027 71.7616 46.3812 69.9248 41.3497 65.6969L40.7926 65.1903C40.4354 64.8621 40.0497 64.5232 39.6926 64.1629C39.1852 63.6686 38.716 63.1367 38.289 62.5717C37.4821 61.6296 36.7792 60.6034 36.1926 59.5107C33.7991 55.1398 32.8952 50.1092 33.6176 45.1796C33.6751 44.958 33.6334 44.7224 33.5033 44.5339L33.2069 44.2378C32.0869 43.1092 30.562 42.4744 28.9711 42.4744C27.3803 42.4744 25.8554 43.1092 24.7354 44.2378L0.353288 68.6045L24.5426 92.7679C27.1049 95.1904 28.5772 98.5454 28.6243 102.069C28.6714 105.593 27.2893 108.986 24.7926 111.476L24.2747 111.954C22.5168 113.636 20.059 114.375 17.664 113.942C11.5282 113.027 5.4426 115.882 2.22791 121.182C-0.986793 126.482 -0.702224 133.192 2.94971 138.201C3.05906 138.371 3.17831 138.534 3.30686 138.69L3.59972 139.047C4.40292 140.01 5.32999 140.863 6.35686 141.583C6.72506 141.887 7.1128 142.166 7.51758 142.418C12.3713 145.401 18.4841 145.436 23.3711 142.507C28.7461 139.318 31.6627 133.203 30.7569 127.024C30.3268 124.529 31.1242 121.98 32.8997 120.174L33.3533 119.76C37.7403 115.472 44.5312 114.829 49.6461 118.219C49.967 118.413 50.2705 118.633 50.5533 118.879C50.8709 119.115 51.1683 119.376 51.4426 119.66L68.2283 136.428C103.716 98.2098 103.64 39.1039 68.0533 0.977051L51.7211 17.2917Z" fill="#C1345C"/>
</svg>
