<svg width="145" height="97" viewBox="0 0 145 97" fill="none" xmlns="http://www.w3.org/2000/svg">
<path d="M99.6148 34.5166C99.7942 34.5571 99.9818 34.5396 100.151 34.4667L100.718 33.9387C101.77 32.8415 102.35 31.3763 102.333 29.8574C102.339 28.2805 101.713 26.7668 100.593 25.6547L76.1506 1.27741L51.7577 25.6547C46.6432 30.7572 38.3579 30.7572 33.2434 25.6547L32.8863 25.298C31.1764 23.5424 30.3921 21.0861 30.7684 18.6658C31.5399 13.8489 29.9497 8.95481 26.4934 5.50857C23.1632 2.14806 18.4699 0.505899 13.7684 1.05621C8.99595 1.62405 4.75064 4.35429 2.25769 8.45896C-0.720143 13.2931 -0.754572 19.3817 2.1684 24.2491C5.39008 29.6219 11.5221 32.5419 17.7291 31.659C20.2037 31.245 22.727 32.041 24.5148 33.7995L24.622 33.8816C29.8279 38.9934 29.9126 47.349 24.8113 52.5651L7.94697 69.4148C46.3086 105.125 105.824 104.986 144.018 69.0973L127.233 52.3296C127.186 52.2868 127.172 52.269 127.176 52.269C127.078 52.2003 126.983 52.1265 126.893 52.0478C126.826 52.0121 126.593 51.823 126.536 51.7802C124.183 50.2313 121.062 50.5568 119.079 52.5579L118.611 52.9825C118.6 53.1791 118.61 53.3764 118.64 53.5711C119.599 60.0543 117.687 66.6336 113.401 71.5953C109.115 76.5571 102.879 79.41 96.3184 79.4112C92.1706 79.4201 88.103 78.2696 84.5756 76.0897C83.9624 75.7139 83.3764 75.2954 82.822 74.8375C81.3554 73.7791 80.0367 72.5302 78.9006 71.1236L78.6541 70.8204C78.4003 70.5149 78.1619 70.197 77.9398 69.8679C72.679 62.5138 72.3316 52.7298 77.0575 45.0219C81.7835 37.314 90.6663 33.1772 99.6148 34.5166Z" fill="#C1345C"/>
</svg>
