<svg width="92" height="101" viewBox="0 0 92 101" fill="none" xmlns="http://www.w3.org/2000/svg">
<path d="M79.8295 21.6866C79.7113 21.6139 79.5859 21.567 79.4629 21.5104C78.4629 20.8541 77.3406 20.3707 76.1997 20.0903L73.9228 22.3785L71.7154 20.0644C71.7082 20.0668 71.7001 20.0668 71.6928 20.0693C70.5988 20.3303 69.5251 20.783 68.5533 21.394C68.3106 21.4676 68.0703 21.5629 67.8413 21.6931C66.4261 22.4868 65.0797 22.642 63.6079 22.1837C58.7296 20.665 54.1846 13.2281 52.8463 10.4945C52.4903 9.75978 51.9061 9.21824 51.2272 8.88119L50.2546 8.55788C49.5491 8.43664 48.8006 8.51827 48.1064 8.85613C46.3432 9.71047 45.6102 11.8314 46.4654 13.591C46.6734 14.0185 47.4477 15.5599 48.7027 17.524L49.5393 18.7873C52.1569 22.5943 56.2949 27.3235 61.4806 28.9449C62.509 29.2657 63.5423 29.4444 64.5715 29.4985V48.1728C64.5715 49.1371 64.7617 50.035 65.0942 50.8603C65.0708 51.0373 65.0392 51.2119 65.0392 51.3938L65.0425 85.3273C65.0433 87.6414 66.9197 89.5166 69.2354 89.5166C71.5512 89.515 73.4284 87.6414 73.4284 85.3273L73.4268 56.2054C73.5926 56.2135 73.7585 56.2248 73.926 56.2248C73.9584 56.2248 73.9907 56.2215 74.0239 56.2207L74.0231 85.3265C74.0231 87.639 75.8995 89.515 78.2153 89.515C80.5302 89.515 82.4082 87.6406 82.4082 85.3265L82.409 52.0363C82.6291 52.2465 82.871 52.4405 83.1502 52.5924C83.6891 52.885 84.2701 53.0232 84.8421 53.0232C86.1003 53.0232 87.3189 52.354 87.9613 51.1723C97.9688 32.7995 84.3162 24.4355 79.8295 21.6866ZM73.9446 40.4449H73.9017L71.6984 37.4325L73.9017 22.7188H73.9446L76.1495 37.4325L73.9446 40.4449ZM83.2764 44.4636V34.3296C84.6309 36.8893 84.9343 40.1305 83.2764 44.4636Z" fill="#294198"/>
<path d="M73.9218 19.5612C78.9684 19.5612 83.0594 15.4745 83.0594 10.4334C83.0594 5.3923 78.9684 1.30566 73.9218 1.30566C68.8752 1.30566 64.7842 5.3923 64.7842 10.4334C64.7842 15.4745 68.8752 19.5612 73.9218 19.5612Z" fill="#294198"/>
<path d="M53.7467 52.2522H8.97533C6.13201 52.2522 3.81787 49.9413 3.81787 47.1003V6.10798C3.81787 3.26771 6.1312 0.956055 8.97533 0.956055H53.7467C56.5908 0.956055 58.9049 3.26771 58.9049 6.10798V47.1011C58.9041 49.9422 56.5892 52.2522 53.7467 52.2522ZM8.97533 4.3904C8.02702 4.3904 7.25672 5.16068 7.25672 6.10798V47.1011C7.25672 48.0476 8.02702 48.8187 8.97533 48.8187H53.7467C54.695 48.8187 55.4661 48.0484 55.4661 47.1011V6.10798C55.4661 5.16068 54.695 4.3904 53.7467 4.3904H8.97533Z" fill="#294198"/>
<path d="M17.2827 71.808C21.2787 71.808 24.518 68.5721 24.518 64.5805C24.518 60.5889 21.2787 57.353 17.2827 57.353C13.2867 57.353 10.0474 60.5889 10.0474 64.5805C10.0474 68.5721 13.2867 71.808 17.2827 71.808Z" fill="#294198"/>
<path d="M8.90087 88.2993C8.68564 86.3182 9.08779 84.6936 9.87832 83.322V88.2993H17.235L15.5221 85.9586L17.2674 74.3074H17.3014L19.0451 85.9586L17.3321 88.2993H24.6888V83.3349C25.4737 84.7025 25.8718 86.3247 25.6574 88.2993H31.3205C31.9711 79.6274 24.8523 75.2555 22.0963 73.5662C21.9741 73.4926 21.8471 73.4385 21.7193 73.3835C20.9134 72.8468 20.0087 72.4524 19.0863 72.2253L17.2836 74.0374L15.5366 72.2051C15.5302 72.2067 15.5245 72.2067 15.5188 72.2083C14.5778 72.4338 13.6554 72.8363 12.8357 73.386C12.7103 73.4385 12.5833 73.4918 12.4643 73.5654C9.7084 75.2547 2.58877 79.6258 3.24013 88.2985H8.90087V88.2993Z" fill="#294198"/>
<path d="M45.4485 71.808C49.4444 71.808 52.6838 68.5721 52.6838 64.5805C52.6838 60.5889 49.4444 57.353 45.4485 57.353C41.4525 57.353 38.2131 60.5889 38.2131 64.5805C38.2131 68.5721 41.4525 71.808 45.4485 71.808Z" fill="#294198"/>
<path d="M37.0661 88.2993C36.8501 86.3182 37.2531 84.6936 38.0436 83.322V88.2993H45.3987L43.6865 85.9586L45.431 74.3074H45.465L47.2103 85.9586L45.4974 88.2993H52.8533V83.3349C53.639 84.7025 54.0371 86.3247 53.8226 88.2993H59.485C60.1355 79.6274 53.0175 75.2555 50.2616 73.5662C50.1402 73.4926 50.0108 73.4385 49.8837 73.3835C49.0795 72.8468 48.174 72.4524 47.2516 72.2253L45.4488 74.0374L43.7019 72.2051C43.6954 72.2067 43.6898 72.2067 43.6841 72.2083C42.7423 72.4338 41.819 72.8363 40.9994 73.386C40.8748 73.4385 40.7477 73.4918 40.6288 73.5654C37.872 75.2547 30.754 79.6258 31.4046 88.2985H37.0661V88.2993Z" fill="#294198"/>
<path d="M83.1764 90.5488H0.453125V100.849H83.1764V90.5488Z" fill="#294198"/>
<path d="M43.7793 28.2981L42.3374 27.7671C42.4506 26.7171 42.4126 25.647 42.2152 24.5825L43.6077 23.9415C44.4767 23.5431 44.857 22.5101 44.4565 21.642L43.6449 19.8808C43.2452 19.0119 42.2128 18.6304 41.3437 19.0305L39.9504 19.6723C39.2699 18.8292 38.4794 18.1058 37.6079 17.5093L38.1395 16.0714C38.4705 15.175 38.0101 14.1752 37.1127 13.8446L35.2906 13.1722C34.4207 12.8521 33.3826 13.3298 33.0614 14.1978L32.5298 15.6374C31.4795 15.5242 30.4074 15.5614 29.3434 15.7578L28.7009 14.3684C28.3012 13.5003 27.2679 13.1188 26.3989 13.5181L24.6342 14.3296C23.7652 14.7297 23.3841 15.7618 23.7846 16.6299L24.4262 18.0202C23.5831 18.7015 22.8581 19.4912 22.261 20.3609L20.8223 19.8307C19.9549 19.5082 18.9144 19.9851 18.5923 20.8548L17.9191 22.6758C17.7589 23.1106 17.7775 23.5819 17.9701 24.0013C18.1659 24.4225 18.5122 24.7425 18.9459 24.901L20.387 25.4336C20.2729 26.4827 20.3101 27.5537 20.5084 28.6166L19.1158 29.2567C18.246 29.6568 17.8657 30.6882 18.2662 31.5554L19.0786 33.3199C19.48 34.1872 20.5116 34.5679 21.3798 34.1678L22.7732 33.5276C23.4536 34.369 24.2442 35.094 25.1164 35.6881L24.5856 37.1268C24.4238 37.5617 24.4416 38.0313 24.6366 38.4516C24.8292 38.8727 25.1763 39.1936 25.6116 39.3544L27.433 40.0269C27.8675 40.1869 28.3392 40.1684 28.76 39.976C29.1816 39.782 29.5012 39.4353 29.6622 39.002L30.193 37.5625C31.2449 37.6765 32.3162 37.6393 33.3802 37.4413L34.0218 38.8323C34.4215 39.6996 35.4548 40.0803 36.3238 39.6802L38.0878 38.8687C38.9576 38.4694 39.3379 37.4372 38.9374 36.5691L38.2957 35.1781C39.1388 34.4975 39.8638 33.7095 40.4602 32.8382L41.9012 33.37C42.3366 33.5308 42.8083 33.5114 43.2298 33.3175C43.6498 33.1243 43.9702 32.7783 44.1304 32.3443L44.8028 30.5233C45.1362 29.6277 44.675 28.6295 43.7793 28.2981ZM34.233 32.826C33.3235 33.2447 32.3599 33.4557 31.3654 33.4557C28.6936 33.4557 26.2468 31.8901 25.1286 29.4677C23.5459 26.0341 25.0541 21.9548 28.4914 20.3738C29.4 19.9551 30.3645 19.7442 31.3581 19.7442C34.0291 19.7442 36.4776 21.309 37.595 23.7306C39.1769 27.1649 37.6702 31.2443 34.233 32.826Z" fill="#294198"/>
</svg>
