<svg width="50" height="50" viewBox="0 0 50 50" fill="none" xmlns="http://www.w3.org/2000/svg">
<g clip-path="url(#clip0)">
<path d="M39.07 49.0858C38.7232 49.0858 38.375 49.0052 38.0545 48.8417L25.0008 42.1825L11.947 48.8417C11.6264 49.0052 11.2783 49.0858 10.9315 49.0858C10.4698 49.0858 10.0105 48.9428 9.62213 48.6624C8.94234 48.1711 8.59479 47.3404 8.72223 46.5114L10.9678 31.8974L0.643255 21.4097C0.0571241 20.8144 -0.148051 19.9419 0.111421 19.1477C0.370795 18.3537 1.05146 17.7705 1.87596 17.6359L16.3204 15.2787L23.0089 2.13569C23.3901 1.38618 24.1599 0.914307 25.0008 0.914307C25.8417 0.914307 26.6114 1.38628 26.9926 2.13569L33.681 15.2787L48.1256 17.6359C48.9502 17.7705 49.6308 18.3537 49.8902 19.1477C50.1496 19.9419 49.9444 20.8144 49.3583 21.4097L39.0338 31.8972L41.2792 46.5112C41.4067 47.3403 41.0591 48.1709 40.3793 48.6622C39.9911 48.9427 39.5317 49.0858 39.07 49.0858Z" fill="#C1345C"/>
<path opacity="0.1" d="M14.3148 47.5172C13.6351 47.0259 13.2875 46.1952 13.4149 45.3662L15.6605 30.7523L5.33613 20.2647C4.7499 19.6694 4.54483 18.7969 4.8042 18.0027C4.92451 17.6347 5.13594 17.3128 5.40957 17.0591L1.87511 17.6358C1.0505 17.7704 0.36994 18.3536 0.110566 19.1476C-0.148905 19.9418 0.0562696 20.8143 0.6424 21.4096L10.967 31.897L8.72128 46.5111C8.59383 47.3402 8.94139 48.1708 9.62117 48.6621C10.0096 48.9425 10.4688 49.0855 10.9305 49.0855C11.2773 49.0855 11.6256 49.0048 11.9461 48.8414L14.4135 47.5826C14.3804 47.5613 14.3469 47.5405 14.3148 47.5172Z" fill="#5E0D24"/>
</g>
<defs>
<clipPath id="clip0">
<rect width="50" height="50" fill="white"/>
</clipPath>
</defs>
</svg>
