<svg width="24" height="24" viewBox="0 0 24 24" fill="none" xmlns="http://www.w3.org/2000/svg">
<path d="M12 22.001C6.477 22.001 2 17.524 2 12.001C2 6.47798 6.477 2.00098 12 2.00098C17.523 2.00098 22 6.47798 22 12.001C22 17.524 17.523 22.001 12 22.001ZM8.89 13.171L8.903 13.164L9.773 16.034C9.885 16.345 10.039 16.401 10.226 16.375C10.414 16.35 10.513 16.249 10.636 16.131L11.824 14.983L14.374 16.871C14.84 17.128 15.175 16.995 15.291 16.439L16.948 8.61698C17.131 7.88898 16.811 7.59698 16.246 7.82898L6.513 11.589C5.849 11.855 5.853 12.227 6.393 12.392L8.89 13.172V13.171Z" fill="#294198"/>
</svg>
