<svg width="150" height="150" viewBox="0 0 150 150" fill="none" xmlns="http://www.w3.org/2000/svg">
<g clip-path="url(#clip0)">
<path d="M107.949 104.742C107.911 104.437 107.835 104.132 107.739 103.846C107.014 101.061 105.355 95.9693 104.592 93.6998C104.516 93.2993 104.383 92.9179 104.211 92.5555C104.211 92.5555 102.99 90.7246 102.075 90.1715C102.075 90.1715 101.617 89.9234 101.56 89.9045C99.7482 89.0463 94.1411 86.796 94.1411 86.796C91.3377 85.5754 88.4386 84.5453 85.4825 83.4964C84.9487 85.6896 79.9326 100.299 79.1318 102.34L78.5022 88.7602C78.712 88.4362 78.8646 88.0736 79.0364 87.7303L81.1343 83.5919C79.6656 84.8125 77.4532 85.5945 74.9741 85.5945C72.552 85.5945 70.3969 84.8507 68.9283 83.6682L70.969 87.7112C71.1407 88.0547 71.2932 88.4362 71.503 88.7411L70.8737 102.32C70.0726 100.298 65.0567 85.6896 64.5227 83.4773C61.5666 84.5262 58.6677 85.5752 55.8641 86.7765C55.8641 86.7765 50.257 89.0272 48.4452 89.8854C48.388 89.9234 47.9875 90.1141 47.9302 90.1524C47.9302 90.1524 46.2519 91.5445 45.7942 92.5173C45.7942 92.5173 45.489 93.2608 45.4128 93.6617C44.669 95.9308 43.0097 101.004 42.2659 103.808C42.1705 104.094 42.0943 104.399 42.0561 104.704C42.018 104.971 41.9989 105.257 41.9989 105.524C41.9989 108.518 44.421 110.941 47.4153 110.941H52.5838C59.9836 110.941 67.3644 110.941 74.7643 110.941C74.8597 110.941 74.955 110.941 75.0504 110.941C75.1457 110.941 75.2411 110.941 75.3365 110.941C82.7365 110.941 90.1171 110.941 97.5172 110.941H102.686C105.68 110.941 108.102 108.518 108.102 105.524C108.007 105.296 107.987 105.01 107.949 104.742Z" fill="white"/>
<path d="M89.1025 58.398C89.1025 57.4444 89.2932 53.9733 89.2932 53.1914C89.2932 45.4673 83.019 39.1926 75.2947 39.1926H75.2756H75.2566C75.1612 39.1926 75.0849 39.1926 74.9896 39.1926C74.8942 39.1926 74.8181 39.1926 74.7227 39.1926H74.7035H74.6844C66.9603 39.1926 60.6857 45.4673 60.6857 53.1914C60.6857 53.9924 60.8764 57.4444 60.8764 58.398C60.5331 58.417 57.4055 57.6542 57.7488 61.4113C58.4545 69.3643 61.506 67.8385 61.5823 67.8385C63.0699 72.6446 65.3966 75.6961 67.6662 77.6416C71.2135 80.6737 74.6465 81.0172 74.7227 81.0172C74.8181 81.0172 74.9135 81.0172 75.0088 81.0172C75.1042 81.0172 75.1995 81.0172 75.2949 81.0172C75.3519 81.0172 78.766 80.6931 82.2943 77.6796C84.5829 75.7344 86.9095 72.6637 88.4163 67.8385C88.5117 67.8385 91.5441 69.3833 92.2498 61.4113C92.5738 57.6542 89.446 58.417 89.1025 58.398Z" fill="white"/>
<path d="M41.6338 90.9346L41.672 90.8201L41.7292 90.7057C42.1488 89.7901 42.8353 88.8939 43.8843 87.864C44.1132 87.6542 44.7997 86.9674 45.3528 86.586C45.391 86.5669 45.4291 86.529 45.4673 86.5101C45.4863 86.4906 45.5054 86.4718 45.5435 86.4718C45.925 86.224 46.3827 86.014 46.5353 85.9379C47.7749 85.3463 50.445 84.2594 52.295 83.4966C52.2378 83.4775 52.1805 83.4391 52.1043 83.4012C52.047 83.3821 51.9898 83.3438 51.9326 83.3249C50.3496 82.5811 45.4673 80.6169 45.4673 80.6169C43.0261 79.5679 40.4895 78.6523 37.9148 77.7371C37.4571 79.6633 33.0706 92.384 32.384 94.1579L31.8309 82.3143C32.0216 82.0282 32.136 81.7227 32.2886 81.4177L34.1195 77.8132C32.8417 78.8816 30.9154 79.5679 28.7603 79.5679C26.6624 79.5679 24.7743 78.9195 23.4774 77.8894L25.2702 81.4177C25.4228 81.7229 25.5372 82.0473 25.7279 82.3143L25.1748 94.1579C24.4882 92.4031 20.1017 79.6633 19.644 77.7371C17.0693 78.6523 14.5327 79.5489 12.0915 80.6169C12.0915 80.6169 7.20915 82.5811 5.62619 83.3249C5.56898 83.344 5.51176 83.3823 5.45455 83.4012C5.32104 83.4775 5.22568 83.5156 5.16847 83.554C4.34838 84.0308 3.69994 84.7553 3.29943 85.6135C3.29943 85.6135 3.29943 85.6135 3.29943 85.6326C3.14685 85.9381 3.03242 86.281 2.97521 86.6245C2.32676 88.608 0.877304 93.0327 0.247934 95.4546C0.171647 95.7027 0.0953592 95.9697 0.0572155 96.2369C0.0190718 96.4656 0 96.7137 0 96.9614C0 99.5745 2.11697 101.672 4.71074 101.672H9.2117C15.658 101.672 22.1043 101.672 28.5505 101.672C28.6268 101.672 28.7222 101.672 28.7985 101.672C28.8748 101.672 28.9701 101.672 29.0464 101.672C32.117 101.672 35.1875 101.672 38.2581 101.672C39.0591 98.8496 40.3369 94.8824 41.1379 92.4984C41.2524 91.907 41.4812 91.278 41.6338 90.9346Z" fill="white"/>
<path d="M17.0517 64.0432C18.3486 68.2199 20.3702 70.89 22.3537 72.5873C25.4434 75.2381 28.4376 75.5242 28.4949 75.5242C28.5711 75.5242 28.6665 75.5242 28.7428 75.5242C28.8191 75.5242 28.9144 75.5242 28.9907 75.5242C29.0479 75.5242 32.0231 75.2381 35.0937 72.6064C37.0963 70.909 39.1179 68.239 40.4338 64.0241C40.5101 64.0241 43.1611 65.3782 43.7905 58.4361C44.0765 55.1557 41.3493 55.8232 41.0632 55.8041C41.0632 54.965 41.2348 51.9516 41.2348 51.265C41.2348 44.5327 35.7612 39.0591 29.0289 39.0591H29.0098H28.9907C28.9144 39.0591 28.8381 39.0591 28.7619 39.0591C28.6856 39.0591 28.6093 39.0591 28.533 39.0591H28.5139H28.4949C21.7625 39.0591 16.2889 44.5327 16.2889 51.265C16.2889 51.9516 16.4605 54.9841 16.4605 55.8041C16.1554 55.8232 13.4281 55.1557 13.7332 58.4361C14.3245 65.3973 16.9755 64.0432 17.0517 64.0432Z" fill="white"/>
<path d="M149.906 92.1929C149.868 91.7545 149.811 91.3156 149.753 90.877C149.753 90.877 149.506 89.4661 149.448 89.2368C148.876 86.7384 147.331 84.9266 145.233 83.4962C144.833 83.2292 144.432 83.0003 144.032 82.7907C143.498 82.5047 135.297 79.8152 135.087 79.7393C135.144 80.0253 135.163 80.3305 135.183 80.6734C136.327 81.4746 139.684 84.3733 138.158 89.7708C138.158 89.7708 135.735 86.891 133.275 86.5286C130.929 90.61 126.943 95.7975 124.788 97.1514C122.633 95.7977 118.647 90.6292 116.302 86.5288C113.841 86.8912 111.419 89.771 111.419 89.771C109.893 84.3546 113.25 81.4748 114.394 80.6736C114.414 80.3305 114.432 80.0255 114.49 79.7394C114.28 79.8154 106.079 82.5049 105.545 82.7909C105.125 83.0007 104.725 83.2294 104.343 83.4964C103.523 84.0495 102.799 84.6598 102.169 85.3462C102.665 85.5563 103.085 85.7471 103.428 85.8993C103.562 85.9567 103.962 86.1474 104.324 86.376C105.183 86.8912 106.022 87.6731 106.937 88.8174C107.853 89.9808 108.158 90.5339 108.311 90.8963C108.539 91.411 108.73 91.9643 108.864 92.5174C109.646 94.9013 110.942 98.8681 111.724 101.672C116.073 101.672 120.44 101.672 124.789 101.672C131.101 101.672 137.414 101.672 143.727 101.672C145.615 101.672 147.217 101.1 148.552 99.6883C149.582 98.582 149.887 97.266 149.963 95.8357C149.982 95.5879 150.001 94.5006 150.001 94.5006C150.001 94.5006 149.906 92.212 149.906 92.1929Z" fill="white"/>
<path d="M109.93 66.4463C110.12 67.152 110.254 67.8195 110.254 68.4489C110.254 68.6587 110.235 68.8685 110.197 69.0783C110.025 69.6695 108.766 71.6911 108.556 72.0344C110.788 74.4374 113.725 74.9905 116.624 75.6008C117.482 75.7725 118.359 75.8869 119.294 76.0013C119.599 76.0587 119.904 76.1161 120.209 76.173L118.741 80.4832C118.741 80.4832 118.703 86.7769 124.787 90.6107H124.825C130.908 86.7769 130.87 80.4832 130.87 80.4832L129.402 76.173C129.707 76.1159 130.012 76.0585 130.317 76.0013C131.252 75.8869 132.129 75.7727 132.987 75.6008C135.886 74.9905 138.843 74.4374 141.055 72.0344C140.845 71.6911 139.587 69.6695 139.415 69.0783C139.377 68.8685 139.357 68.6587 139.357 68.4489C139.357 67.8195 139.472 67.152 139.682 66.4463C139.872 65.7788 140.082 65.1113 140.292 64.4247C141.284 62.2315 141.818 59.8093 141.818 57.2346C141.818 47.7178 134.246 39.9746 124.844 39.803H124.825H124.805C115.403 39.9746 107.832 47.7178 107.832 57.2346C107.832 59.7903 108.385 62.2315 109.357 64.4247C109.529 65.1113 109.739 65.7788 109.93 66.4463Z" fill="white"/>
</g>
<defs>
<clipPath id="clip0">
<rect width="150" height="150" fill="white"/>
</clipPath>
</defs>
</svg>
