<svg width="22" height="22" viewBox="0 0 22 22" fill="none" xmlns="http://www.w3.org/2000/svg">
<g clip-path="url(#clip0)">
<path d="M16.4825 0.000976562H5.5C2.47937 0.000976562 0 2.48034 0 5.51844V16.501C0 19.5216 2.47937 22.001 5.5 22.001H16.4825C19.5206 22.001 22 19.5216 22 16.4835V5.51844C22 2.48034 19.5206 0.000976562 16.4825 0.000976562ZM10.4063 4.5232C10.4413 3.98193 10.9476 4.17399 11.2095 4.13907C14.4921 4.24383 17.3206 7.19463 17.2857 10.3724C17.2857 10.6867 17.3905 11.1407 16.919 11.1407C16.4651 11.1407 16.5873 10.6692 16.5349 10.3549C16.0984 6.9851 14.527 5.39621 11.1048 4.87241C10.8254 4.83748 10.3889 4.88987 10.4063 4.5232ZM15.3127 10.5121C14.7889 10.5819 14.8937 10.128 14.8413 9.83114C14.4921 7.77082 13.7587 7.02002 11.646 6.56606C11.3317 6.49621 10.8429 6.5486 10.9302 6.07717C11 5.6232 11.4365 5.78034 11.7683 5.81526C13.881 6.05971 15.6095 7.85812 15.5921 9.83114C15.5571 10.0407 15.6968 10.4422 15.3127 10.5121ZM14.0032 9.42955C14.0032 9.70891 13.9683 9.97082 13.654 10.0057C13.427 10.0407 13.2873 9.8486 13.2524 9.62161C13.1651 8.78352 12.7111 8.27717 11.8381 8.13748C11.5762 8.10256 11.3317 8.01526 11.454 7.66606C11.5413 7.43907 11.7508 7.40415 11.9778 7.40415C12.9206 7.38669 14.0032 8.48669 14.0032 9.42955ZM17.3206 15.8724C16.954 16.8676 15.7143 17.8803 14.6492 17.8629C14.4921 17.828 14.1952 17.7756 13.9333 17.6708C9.25397 15.6978 5.84921 12.4502 3.92857 7.80574C3.28254 6.25177 3.96349 4.92479 5.5873 4.40098C5.88413 4.29621 6.16349 4.29621 6.46032 4.40098C7.15873 4.64542 8.92222 7.03748 8.95714 7.7359C8.99206 8.27717 8.60794 8.57399 8.24127 8.81844C7.5254 9.28987 7.5254 9.88352 7.83968 10.5645C8.52064 12.0661 9.69048 13.1137 11.2095 13.7772C11.7508 14.0216 12.2921 14.0042 12.6587 13.4454C13.3222 12.4502 14.1429 12.5026 15.0333 13.1137C15.4873 13.428 15.9413 13.7248 16.3603 14.0565C16.9365 14.528 17.6698 14.9121 17.3206 15.8724Z" fill="#294198"/>
</g>
<defs>
<clipPath id="clip0">
<rect y="0.000976562" width="22" height="22" fill="white"/>
</clipPath>
</defs>
</svg>
