<svg width="24" height="24" viewBox="0 0 24 24" fill="none" xmlns="http://www.w3.org/2000/svg">
<path d="M2.00401 22.001L3.35601 17.033C2.46515 15.5058 1.99711 13.769 2.00001 12.001C2.00001 6.47798 6.47701 2.00098 12 2.00098C17.523 2.00098 22 6.47798 22 12.001C22 17.524 17.523 22.001 12 22.001C10.2328 22.0038 8.49667 21.5361 6.97001 20.646L2.00401 22.001ZM8.39101 7.30898C8.26188 7.317 8.13569 7.35101 8.02001 7.40898C7.91153 7.47041 7.81251 7.5472 7.72601 7.63698C7.60601 7.74998 7.53801 7.84798 7.46501 7.94298C7.09542 8.42397 6.89662 9.01439 6.90001 9.62098C6.90201 10.111 7.03001 10.588 7.23001 11.034C7.63901 11.936 8.31201 12.891 9.20101 13.776C9.41501 13.989 9.62401 14.203 9.84901 14.402C10.9524 15.3734 12.2673 16.074 13.689 16.448L14.258 16.535C14.443 16.545 14.628 16.531 14.814 16.522C15.1053 16.5069 15.3896 16.4281 15.647 16.291C15.778 16.2235 15.9058 16.1501 16.03 16.071C16.03 16.071 16.073 16.043 16.155 15.981C16.29 15.881 16.373 15.81 16.485 15.693C16.568 15.607 16.64 15.506 16.695 15.391C16.773 15.228 16.851 14.917 16.883 14.658C16.907 14.46 16.9 14.352 16.897 14.285C16.893 14.178 16.804 14.067 16.707 14.02L16.125 13.759C16.125 13.759 15.255 13.38 14.724 13.138C14.668 13.1136 14.608 13.0997 14.547 13.097C14.4786 13.0899 14.4095 13.0976 14.3443 13.1196C14.2791 13.1415 14.2193 13.1771 14.169 13.224V13.222C14.164 13.222 14.097 13.279 13.374 14.155C13.3325 14.2107 13.2754 14.2529 13.2098 14.276C13.1443 14.2992 13.0733 14.3023 13.006 14.285C12.9409 14.2676 12.877 14.2455 12.815 14.219C12.691 14.167 12.648 14.147 12.563 14.11L12.558 14.108C11.9859 13.8582 11.4562 13.5208 10.988 13.108C10.862 12.998 10.745 12.878 10.625 12.762C10.2316 12.3852 9.88873 11.959 9.60501 11.494L9.54601 11.399C9.50364 11.3351 9.46937 11.2663 9.44401 11.194C9.40601 11.047 9.50501 10.929 9.50501 10.929C9.50501 10.929 9.74801 10.663 9.86101 10.519C9.9551 10.3993 10.0429 10.2748 10.124 10.146C10.242 9.95598 10.279 9.76098 10.217 9.60998C9.93701 8.92598 9.64701 8.24498 9.34901 7.56898C9.29001 7.43498 9.11501 7.33898 8.95601 7.31998C8.90201 7.31398 8.84801 7.30798 8.79401 7.30398C8.65972 7.2973 8.52515 7.29964 8.39101 7.30898Z" fill="#294198"/>
</svg>
